<svg width="306" height="80" viewBox="0 0 306 80" fill="none" xmlns="http://www.w3.org/2000/svg">
<path d="M98.2626 69.8418C98.2626 69.3438 98.2567 68.9102 98.245 68.541C98.2333 68.166 98.2157 67.8438 98.1923 67.5742C98.1689 67.2988 98.1396 67.0703 98.1044 66.8887C98.0751 66.707 98.0429 66.5547 98.0077 66.4316V66.3965C98.1249 66.4023 98.248 66.4053 98.3769 66.4053C98.4882 66.4111 98.6112 66.4141 98.746 66.4141C98.8866 66.4141 99.0302 66.4141 99.1767 66.4141C99.3876 66.4141 99.6718 66.3936 100.029 66.3525C100.392 66.3115 100.858 66.291 101.427 66.291C101.954 66.291 102.44 66.3613 102.886 66.502C103.331 66.6367 103.715 66.833 104.037 67.0908C104.365 67.3486 104.62 67.668 104.802 68.0488C104.989 68.4238 105.083 68.8516 105.083 69.332C105.083 69.7363 105.027 70.0996 104.916 70.4219C104.805 70.7383 104.646 71.0166 104.441 71.2568C104.242 71.4912 103.999 71.6904 103.712 71.8545C103.431 72.0127 103.12 72.1387 102.78 72.2324C103.278 72.3086 103.732 72.4375 104.142 72.6191C104.553 72.7949 104.904 73.0176 105.197 73.2871C105.496 73.5566 105.725 73.873 105.883 74.2363C106.047 74.5938 106.129 74.9922 106.129 75.4316C106.129 76.668 105.722 77.5967 104.907 78.2178C104.093 78.833 102.874 79.1406 101.251 79.1406C101.075 79.1406 100.87 79.1318 100.636 79.1143C100.401 79.1025 100.161 79.0879 99.9149 79.0703C99.6747 79.0527 99.4374 79.0352 99.203 79.0176C98.9687 79.0059 98.7636 79 98.5878 79H98.0077V78.9648C98.0429 78.8418 98.0751 78.6895 98.1044 78.5078C98.1396 78.3262 98.1689 78.1006 98.1923 77.8311C98.2157 77.5615 98.2333 77.2422 98.245 76.873C98.2567 76.498 98.2626 76.0615 98.2626 75.5635V69.8418ZM101.488 72.7686C101.09 72.7686 100.756 72.7832 100.486 72.8125C100.217 72.8418 100.009 72.8711 99.8622 72.9004V75.5635C99.8622 76.249 99.8739 76.8145 99.8974 77.2598C99.9208 77.7051 99.953 78.0684 99.994 78.3496C100.217 78.3789 100.439 78.4053 100.662 78.4287C100.885 78.4521 101.063 78.4639 101.198 78.4639C102.294 78.4639 103.094 78.2207 103.598 77.7344C104.107 77.2422 104.362 76.4893 104.362 75.4756C104.362 75.0771 104.301 74.7139 104.178 74.3857C104.06 74.0518 103.882 73.7646 103.642 73.5244C103.407 73.2842 103.108 73.0996 102.745 72.9707C102.388 72.8359 101.969 72.7686 101.488 72.7686ZM99.8622 72.1094C100.026 72.127 100.173 72.1387 100.302 72.1445C100.431 72.1445 100.568 72.1445 100.715 72.1445C101.113 72.1445 101.476 72.0889 101.805 71.9775C102.133 71.8604 102.411 71.6875 102.64 71.459C102.874 71.2305 103.056 70.9463 103.184 70.6064C103.313 70.2607 103.378 69.8594 103.378 69.4023C103.378 69.0215 103.331 68.6758 103.237 68.3652C103.143 68.0547 103.003 67.791 102.815 67.5742C102.634 67.3516 102.408 67.1816 102.139 67.0645C101.869 66.9473 101.561 66.8887 101.216 66.8887C100.993 66.8887 100.797 66.8975 100.627 66.915C100.463 66.9326 100.322 66.9531 100.205 66.9766C100.07 67 99.956 67.0293 99.8622 67.0645V72.1094Z" fill="white"/>
<path d="M107.474 74.4824C107.474 73.8203 107.597 73.208 107.843 72.6455C108.089 72.0771 108.426 71.585 108.853 71.1689C109.287 70.7529 109.797 70.4277 110.383 70.1934C110.969 69.959 111.599 69.8418 112.272 69.8418C112.934 69.8418 113.556 69.9531 114.136 70.1758C114.722 70.3926 115.231 70.7031 115.665 71.1074C116.099 71.5117 116.438 72.0039 116.684 72.584C116.936 73.1641 117.062 73.8145 117.062 74.5352C117.062 75.1387 116.957 75.7188 116.746 76.2754C116.535 76.832 116.225 77.3242 115.814 77.752C115.404 78.1797 114.9 78.5225 114.303 78.7803C113.711 79.0322 113.028 79.1582 112.255 79.1582C111.599 79.1582 110.98 79.0498 110.4 78.833C109.82 78.6162 109.313 78.3057 108.88 77.9014C108.446 77.4971 108.103 77.0078 107.851 76.4336C107.6 75.8535 107.474 75.2031 107.474 74.4824ZM112.457 78.5166C112.873 78.5166 113.254 78.4346 113.6 78.2705C113.951 78.1064 114.253 77.8691 114.505 77.5586C114.757 77.248 114.953 76.8701 115.094 76.4248C115.234 75.9795 115.305 75.4756 115.305 74.9131C115.305 74.2803 115.237 73.6943 115.102 73.1553C114.968 72.6104 114.766 72.1416 114.496 71.749C114.232 71.3506 113.898 71.04 113.494 70.8174C113.09 70.5947 112.618 70.4834 112.079 70.4834C111.663 70.4834 111.282 70.5654 110.936 70.7295C110.591 70.8877 110.289 71.1191 110.031 71.4238C109.779 71.7285 109.583 72.1035 109.442 72.5488C109.302 72.9883 109.231 73.4893 109.231 74.0518C109.231 74.6846 109.299 75.2734 109.434 75.8184C109.574 76.3633 109.779 76.8379 110.049 77.2422C110.318 77.6406 110.652 77.9541 111.051 78.1826C111.455 78.4053 111.924 78.5166 112.457 78.5166Z" fill="white"/>
<path d="M119.093 69.2969C119.093 68.7988 119.084 68.3652 119.066 67.9961C119.055 67.6211 119.037 67.2988 119.014 67.0293C118.996 66.7598 118.97 66.5342 118.934 66.3525C118.905 66.1709 118.873 66.0186 118.838 65.8955V65.8604H120.868V65.8955C120.833 66.0186 120.801 66.1709 120.771 66.3525C120.742 66.5342 120.716 66.7598 120.692 67.0293C120.669 67.2988 120.651 67.6211 120.64 67.9961C120.628 68.3652 120.622 68.7988 120.622 69.2969V75.5635C120.622 76.0615 120.628 76.498 120.64 76.873C120.651 77.2422 120.669 77.5615 120.692 77.8311C120.716 78.1006 120.742 78.3262 120.771 78.5078C120.801 78.6895 120.833 78.8418 120.868 78.9648V79H118.838V78.9648C118.873 78.8418 118.905 78.6895 118.934 78.5078C118.97 78.3262 118.996 78.1006 119.014 77.8311C119.037 77.5615 119.055 77.2422 119.066 76.873C119.084 76.498 119.093 76.0615 119.093 75.5635V69.2969Z" fill="white"/>
<path d="M127.354 71.7666L127.231 71.7842C127.19 71.6494 127.123 71.5059 127.029 71.3535C126.941 71.2012 126.824 71.0605 126.678 70.9316C126.537 70.8027 126.364 70.6973 126.159 70.6152C125.96 70.5273 125.728 70.4834 125.465 70.4834C125.283 70.4834 125.11 70.5098 124.946 70.5625C124.788 70.6152 124.647 70.6943 124.524 70.7998C124.407 70.8994 124.313 71.0254 124.243 71.1777C124.173 71.3301 124.138 71.5088 124.138 71.7139C124.138 72.001 124.225 72.2764 124.401 72.54C124.583 72.7979 124.809 73.0557 125.078 73.3135C125.348 73.5654 125.638 73.8203 125.948 74.0781C126.265 74.3359 126.558 74.6055 126.827 74.8867C127.097 75.168 127.319 75.4697 127.495 75.792C127.677 76.1084 127.767 76.4512 127.767 76.8203C127.767 77.1191 127.715 77.4121 127.609 77.6992C127.504 77.9805 127.34 78.2324 127.117 78.4551C126.9 78.6777 126.619 78.8594 126.273 79C125.934 79.1348 125.526 79.2021 125.052 79.2021C124.77 79.2021 124.507 79.1758 124.261 79.123C124.02 79.0703 123.798 79.0059 123.593 78.9297C123.393 78.8477 123.212 78.7598 123.048 78.666C122.89 78.5664 122.749 78.4727 122.626 78.3848L122.714 76.7148H122.854C122.913 76.9902 123.001 77.2422 123.118 77.4707C123.235 77.6992 123.379 77.8955 123.549 78.0596C123.725 78.2178 123.924 78.3438 124.146 78.4375C124.369 78.5254 124.612 78.5693 124.876 78.5693C125.309 78.5693 125.652 78.4492 125.904 78.209C126.162 77.9688 126.291 77.6553 126.291 77.2686C126.291 76.958 126.203 76.6738 126.027 76.416C125.857 76.1523 125.641 75.9004 125.377 75.6602C125.113 75.4199 124.829 75.1797 124.524 74.9395C124.225 74.6992 123.944 74.4443 123.681 74.1748C123.417 73.8994 123.197 73.6006 123.021 73.2783C122.851 72.9502 122.767 72.5781 122.767 72.1621C122.767 71.8223 122.828 71.5117 122.951 71.2305C123.08 70.9434 123.256 70.7002 123.478 70.501C123.707 70.2959 123.976 70.1377 124.287 70.0264C124.598 69.915 124.937 69.8594 125.307 69.8594C125.793 69.8594 126.197 69.9121 126.519 70.0176C126.848 70.1172 127.097 70.2139 127.267 70.3076L127.354 71.7666Z" fill="white"/>
<path d="M129.059 76.4072C129.059 75.9443 129.153 75.543 129.341 75.2031C129.534 74.8633 129.789 74.5732 130.105 74.333C130.422 74.0928 130.782 73.8994 131.186 73.7529C131.591 73.6006 132.01 73.4834 132.443 73.4014C132.877 73.3135 133.305 73.2549 133.726 73.2256C134.148 73.1904 134.535 73.1699 134.887 73.1641V72.7158C134.887 72.3291 134.837 71.9951 134.737 71.7139C134.638 71.4326 134.497 71.2012 134.315 71.0195C134.134 70.832 133.914 70.6943 133.656 70.6064C133.404 70.5127 133.126 70.4658 132.821 70.4658C132.61 70.4658 132.402 70.4834 132.197 70.5186C131.992 70.5537 131.778 70.6123 131.556 70.6943C131.339 70.7764 131.107 70.8877 130.861 71.0283C130.621 71.1689 130.36 71.3477 130.079 71.5645L129.991 71.5117L130.589 70.2725C130.782 70.1846 130.973 70.1143 131.16 70.0615C131.348 70.0029 131.538 69.9561 131.731 69.9209C131.925 69.8857 132.121 69.8623 132.32 69.8506C132.525 69.833 132.739 69.8242 132.962 69.8242C133.577 69.8242 134.101 69.9004 134.535 70.0527C134.975 70.1992 135.332 70.4043 135.607 70.668C135.889 70.9258 136.094 71.2305 136.223 71.582C136.351 71.9277 136.416 72.2998 136.416 72.6982V75.5635C136.416 76.0615 136.422 76.498 136.434 76.873C136.451 77.2422 136.469 77.5615 136.486 77.8311C136.51 78.1006 136.536 78.3262 136.565 78.5078C136.6 78.6895 136.636 78.8418 136.671 78.9648V79H134.728V78.9648C134.758 78.8711 134.778 78.7656 134.79 78.6484C134.808 78.5312 134.822 78.3906 134.834 78.2266C134.711 78.332 134.564 78.4404 134.394 78.5518C134.23 78.6631 134.04 78.7656 133.823 78.8594C133.612 78.9473 133.375 79.0176 133.111 79.0703C132.853 79.1289 132.569 79.1582 132.259 79.1582C131.239 79.1582 130.451 78.9209 129.894 78.4463C129.338 77.9658 129.059 77.2861 129.059 76.4072ZM134.887 73.8496C134.353 73.8555 133.841 73.8877 133.349 73.9463C132.856 73.999 132.42 74.1133 132.039 74.2891C131.664 74.4648 131.362 74.7168 131.134 75.0449C130.911 75.3672 130.8 75.7979 130.8 76.3369C130.8 77.0283 130.973 77.5557 131.318 77.9189C131.664 78.2822 132.142 78.4639 132.751 78.4639C133.032 78.4639 133.287 78.4258 133.516 78.3496C133.75 78.2676 133.955 78.168 134.131 78.0508C134.312 77.9277 134.465 77.7959 134.588 77.6553C134.711 77.5088 134.805 77.3682 134.869 77.2334C134.881 77.0107 134.887 76.7646 134.887 76.4951C134.887 76.2197 134.887 75.9092 134.887 75.5635V73.8496Z" fill="white"/>
<path d="M143.052 71.7666L142.929 71.7842C142.888 71.6494 142.82 71.5059 142.726 71.3535C142.639 71.2012 142.521 71.0605 142.375 70.9316C142.234 70.8027 142.061 70.6973 141.856 70.6152C141.657 70.5273 141.426 70.4834 141.162 70.4834C140.98 70.4834 140.808 70.5098 140.643 70.5625C140.485 70.6152 140.345 70.6943 140.222 70.7998C140.104 70.8994 140.011 71.0254 139.94 71.1777C139.87 71.3301 139.835 71.5088 139.835 71.7139C139.835 72.001 139.923 72.2764 140.099 72.54C140.28 72.7979 140.506 73.0557 140.775 73.3135C141.045 73.5654 141.335 73.8203 141.645 74.0781C141.962 74.3359 142.255 74.6055 142.524 74.8867C142.794 75.168 143.017 75.4697 143.192 75.792C143.374 76.1084 143.465 76.4512 143.465 76.8203C143.465 77.1191 143.412 77.4121 143.307 77.6992C143.201 77.9805 143.037 78.2324 142.814 78.4551C142.598 78.6777 142.316 78.8594 141.971 79C141.631 79.1348 141.224 79.2021 140.749 79.2021C140.468 79.2021 140.204 79.1758 139.958 79.123C139.718 79.0703 139.495 79.0059 139.29 78.9297C139.091 78.8477 138.909 78.7598 138.745 78.666C138.587 78.5664 138.446 78.4727 138.323 78.3848L138.411 76.7148H138.552C138.61 76.9902 138.698 77.2422 138.815 77.4707C138.933 77.6992 139.076 77.8955 139.246 78.0596C139.422 78.2178 139.621 78.3438 139.844 78.4375C140.066 78.5254 140.309 78.5693 140.573 78.5693C141.007 78.5693 141.35 78.4492 141.601 78.209C141.859 77.9688 141.988 77.6553 141.988 77.2686C141.988 76.958 141.9 76.6738 141.725 76.416C141.555 76.1523 141.338 75.9004 141.074 75.6602C140.81 75.4199 140.526 75.1797 140.222 74.9395C139.923 74.6992 139.642 74.4443 139.378 74.1748C139.114 73.8994 138.894 73.6006 138.719 73.2783C138.549 72.9502 138.464 72.5781 138.464 72.1621C138.464 71.8223 138.525 71.5117 138.648 71.2305C138.777 70.9434 138.953 70.7002 139.176 70.501C139.404 70.2959 139.674 70.1377 139.984 70.0264C140.295 69.915 140.635 69.8594 141.004 69.8594C141.49 69.8594 141.894 69.9121 142.217 70.0176C142.545 70.1172 142.794 70.2139 142.964 70.3076L143.052 71.7666Z" fill="white"/>
<path d="M154.794 79.1582C154.143 79.1582 153.534 79.0557 152.966 78.8506C152.397 78.6455 151.902 78.3467 151.48 77.9541C151.059 77.5557 150.725 77.0664 150.478 76.4863C150.238 75.9004 150.118 75.2324 150.118 74.4824C150.118 73.8203 150.229 73.208 150.452 72.6455C150.675 72.0771 150.982 71.585 151.375 71.1689C151.767 70.7529 152.225 70.4277 152.746 70.1934C153.273 69.959 153.842 69.8418 154.451 69.8418C155.055 69.8418 155.614 69.9473 156.13 70.1582C156.645 70.3633 157.091 70.665 157.466 71.0635C157.847 71.4561 158.145 71.9453 158.362 72.5312C158.585 73.1113 158.705 73.7734 158.723 74.5176C158.06 74.5059 157.398 74.4971 156.736 74.4912C156.074 74.4854 155.386 74.4824 154.671 74.4824C154.161 74.4824 153.663 74.4854 153.177 74.4912C152.696 74.4971 152.263 74.5059 151.876 74.5176C151.911 75.127 152.005 75.6777 152.157 76.1699C152.315 76.6621 152.529 77.084 152.799 77.4355C153.074 77.7812 153.405 78.0479 153.792 78.2354C154.184 78.4229 154.627 78.5166 155.119 78.5166C155.459 78.5166 155.778 78.4785 156.077 78.4023C156.382 78.3203 156.657 78.209 156.903 78.0684C157.149 77.9277 157.369 77.7637 157.562 77.5762C157.756 77.3828 157.92 77.1748 158.055 76.9521L158.16 77.0049L157.51 78.5693C157.193 78.7334 156.815 78.874 156.376 78.9912C155.936 79.1025 155.409 79.1582 154.794 79.1582ZM153.625 73.7969C154.211 73.7969 154.797 73.7969 155.383 73.7969C155.975 73.791 156.511 73.7793 156.991 73.7617C156.938 73.252 156.839 72.7949 156.692 72.3906C156.546 71.9863 156.358 71.6436 156.13 71.3623C155.901 71.0811 155.632 70.8643 155.321 70.7119C155.011 70.5596 154.668 70.4834 154.293 70.4834C153.953 70.4834 153.64 70.5596 153.352 70.7119C153.071 70.8584 152.825 71.0723 152.614 71.3535C152.403 71.6348 152.233 71.9805 152.104 72.3906C151.975 72.7949 151.899 73.2578 151.876 73.7793C152.14 73.791 152.418 73.7969 152.711 73.7969C153.004 73.7969 153.309 73.7969 153.625 73.7969Z" fill="white"/>
<path d="M174.631 79V78.9648C174.642 78.9355 174.651 78.8916 174.657 78.833C174.663 78.7744 174.666 78.7217 174.666 78.6748C174.666 78.4932 174.64 78.2939 174.587 78.0771C174.54 77.8545 174.446 77.5791 174.306 77.251L173.242 74.8604C172.914 74.8486 172.477 74.8428 171.933 74.8428C171.388 74.8428 170.799 74.8428 170.166 74.8428C169.703 74.8428 169.255 74.8428 168.821 74.8428C168.393 74.8428 168.007 74.8486 167.661 74.8604L166.65 77.1807C166.562 77.3975 166.469 77.6348 166.369 77.8926C166.269 78.1504 166.22 78.4111 166.22 78.6748C166.22 78.751 166.225 78.8154 166.237 78.8682C166.249 78.915 166.261 78.9473 166.272 78.9648V79H164.479V78.9648C164.585 78.8535 164.717 78.6572 164.875 78.376C165.033 78.0889 165.206 77.7314 165.393 77.3037L170.43 66.1328H171.133L175.905 76.873C176.017 77.125 176.131 77.3711 176.248 77.6113C176.371 77.8457 176.485 78.0566 176.591 78.2441C176.696 78.4316 176.79 78.5898 176.872 78.7188C176.954 78.8477 177.01 78.9297 177.039 78.9648V79H174.631ZM168.935 74.0869C169.275 74.0869 169.624 74.0869 169.981 74.0869C170.339 74.0811 170.687 74.0781 171.027 74.0781C171.373 74.0723 171.704 74.0693 172.02 74.0693C172.337 74.0635 172.624 74.0576 172.882 74.0518L170.412 68.4707L167.986 74.0869H168.935Z" fill="white"/>
<path d="M185.529 77.1279L184.879 78.6924C184.721 78.7627 184.539 78.8271 184.334 78.8857C184.129 78.9443 183.915 78.9941 183.692 79.0352C183.475 79.0762 183.256 79.1055 183.033 79.123C182.81 79.1465 182.6 79.1582 182.4 79.1582C181.691 79.1582 181.035 79.0557 180.432 78.8506C179.834 78.6396 179.315 78.335 178.876 77.9365C178.442 77.5381 178.102 77.0488 177.856 76.4688C177.61 75.8887 177.487 75.2266 177.487 74.4824C177.487 73.8203 177.613 73.208 177.865 72.6455C178.123 72.0771 178.477 71.585 178.929 71.1689C179.386 70.7529 179.922 70.4277 180.537 70.1934C181.152 69.959 181.82 69.8418 182.541 69.8418C182.869 69.8418 183.221 69.8711 183.596 69.9297C183.971 69.9824 184.305 70.0527 184.598 70.1406L185.222 71.6348L185.116 71.6963C184.97 71.5146 184.794 71.3506 184.589 71.2041C184.39 71.0518 184.167 70.9229 183.921 70.8174C183.681 70.7119 183.426 70.6299 183.156 70.5713C182.887 70.5127 182.611 70.4834 182.33 70.4834C181.873 70.4834 181.457 70.5654 181.082 70.7295C180.707 70.8877 180.385 71.1191 180.115 71.4238C179.846 71.7285 179.635 72.1035 179.482 72.5488C179.336 72.9883 179.263 73.4893 179.263 74.0518C179.263 74.6846 179.333 75.2734 179.474 75.8184C179.62 76.3633 179.834 76.8379 180.115 77.2422C180.402 77.6406 180.76 77.9541 181.187 78.1826C181.621 78.4053 182.128 78.5166 182.708 78.5166C182.977 78.5166 183.244 78.4844 183.508 78.4199C183.777 78.3496 184.029 78.2529 184.264 78.1299C184.504 78.001 184.724 77.8486 184.923 77.6729C185.122 77.4971 185.289 77.2979 185.424 77.0752L185.529 77.1279Z" fill="white"/>
<path d="M191.251 79.1582C190.6 79.1582 189.991 79.0557 189.423 78.8506C188.854 78.6455 188.359 78.3467 187.937 77.9541C187.516 77.5557 187.182 77.0664 186.935 76.4863C186.695 75.9004 186.575 75.2324 186.575 74.4824C186.575 73.8203 186.686 73.208 186.909 72.6455C187.132 72.0771 187.439 71.585 187.832 71.1689C188.225 70.7529 188.682 70.4277 189.203 70.1934C189.73 69.959 190.299 69.8418 190.908 69.8418C191.512 69.8418 192.071 69.9473 192.587 70.1582C193.102 70.3633 193.548 70.665 193.923 71.0635C194.304 71.4561 194.602 71.9453 194.819 72.5312C195.042 73.1113 195.162 73.7734 195.18 74.5176C194.517 74.5059 193.855 74.4971 193.193 74.4912C192.531 74.4854 191.843 74.4824 191.128 74.4824C190.618 74.4824 190.12 74.4854 189.634 74.4912C189.153 74.4971 188.72 74.5059 188.333 74.5176C188.368 75.127 188.462 75.6777 188.614 76.1699C188.772 76.6621 188.986 77.084 189.256 77.4355C189.531 77.7812 189.862 78.0479 190.249 78.2354C190.642 78.4229 191.084 78.5166 191.576 78.5166C191.916 78.5166 192.235 78.4785 192.534 78.4023C192.839 78.3203 193.114 78.209 193.36 78.0684C193.606 77.9277 193.826 77.7637 194.019 77.5762C194.213 77.3828 194.377 77.1748 194.512 76.9521L194.617 77.0049L193.967 78.5693C193.65 78.7334 193.272 78.874 192.833 78.9912C192.393 79.1025 191.866 79.1582 191.251 79.1582ZM190.082 73.7969C190.668 73.7969 191.254 73.7969 191.84 73.7969C192.432 73.791 192.968 73.7793 193.448 73.7617C193.395 73.252 193.296 72.7949 193.149 72.3906C193.003 71.9863 192.815 71.6436 192.587 71.3623C192.358 71.0811 192.089 70.8643 191.778 70.7119C191.468 70.5596 191.125 70.4834 190.75 70.4834C190.41 70.4834 190.097 70.5596 189.809 70.7119C189.528 70.8584 189.282 71.0723 189.071 71.3535C188.86 71.6348 188.69 71.9805 188.561 72.3906C188.433 72.7949 188.356 73.2578 188.333 73.7793C188.597 73.791 188.875 73.7969 189.168 73.7969C189.461 73.7969 189.766 73.7969 190.082 73.7969Z" fill="white"/>
<path d="M201.042 71.7666L200.919 71.7842C200.878 71.6494 200.81 71.5059 200.717 71.3535C200.629 71.2012 200.512 71.0605 200.365 70.9316C200.225 70.8027 200.052 70.6973 199.847 70.6152C199.647 70.5273 199.416 70.4834 199.152 70.4834C198.971 70.4834 198.798 70.5098 198.634 70.5625C198.475 70.6152 198.335 70.6943 198.212 70.7998C198.095 70.8994 198.001 71.0254 197.931 71.1777C197.86 71.3301 197.825 71.5088 197.825 71.7139C197.825 72.001 197.913 72.2764 198.089 72.54C198.27 72.7979 198.496 73.0557 198.766 73.3135C199.035 73.5654 199.325 73.8203 199.636 74.0781C199.952 74.3359 200.245 74.6055 200.515 74.8867C200.784 75.168 201.007 75.4697 201.183 75.792C201.364 76.1084 201.455 76.4512 201.455 76.8203C201.455 77.1191 201.402 77.4121 201.297 77.6992C201.191 77.9805 201.027 78.2324 200.805 78.4551C200.588 78.6777 200.307 78.8594 199.961 79C199.621 79.1348 199.214 79.2021 198.739 79.2021C198.458 79.2021 198.194 79.1758 197.948 79.123C197.708 79.0703 197.485 79.0059 197.28 78.9297C197.081 78.8477 196.899 78.7598 196.735 78.666C196.577 78.5664 196.436 78.4727 196.313 78.3848L196.401 76.7148H196.542C196.6 76.9902 196.688 77.2422 196.806 77.4707C196.923 77.6992 197.066 77.8955 197.236 78.0596C197.412 78.2178 197.611 78.3438 197.834 78.4375C198.057 78.5254 198.3 78.5693 198.563 78.5693C198.997 78.5693 199.34 78.4492 199.592 78.209C199.85 77.9688 199.978 77.6553 199.978 77.2686C199.978 76.958 199.891 76.6738 199.715 76.416C199.545 76.1523 199.328 75.9004 199.064 75.6602C198.801 75.4199 198.517 75.1797 198.212 74.9395C197.913 74.6992 197.632 74.4443 197.368 74.1748C197.104 73.8994 196.885 73.6006 196.709 73.2783C196.539 72.9502 196.454 72.5781 196.454 72.1621C196.454 71.8223 196.516 71.5117 196.639 71.2305C196.767 70.9434 196.943 70.7002 197.166 70.501C197.394 70.2959 197.664 70.1377 197.975 70.0264C198.285 69.915 198.625 69.8594 198.994 69.8594C199.48 69.8594 199.885 69.9121 200.207 70.0176C200.535 70.1172 200.784 70.2139 200.954 70.3076L201.042 71.7666Z" fill="white"/>
<path d="M207.423 71.7666L207.3 71.7842C207.259 71.6494 207.191 71.5059 207.098 71.3535C207.01 71.2012 206.892 71.0605 206.746 70.9316C206.605 70.8027 206.433 70.6973 206.227 70.6152C206.028 70.5273 205.797 70.4834 205.533 70.4834C205.351 70.4834 205.179 70.5098 205.015 70.5625C204.856 70.6152 204.716 70.6943 204.593 70.7998C204.475 70.8994 204.382 71.0254 204.311 71.1777C204.241 71.3301 204.206 71.5088 204.206 71.7139C204.206 72.001 204.294 72.2764 204.47 72.54C204.651 72.7979 204.877 73.0557 205.146 73.3135C205.416 73.5654 205.706 73.8203 206.017 74.0781C206.333 74.3359 206.626 74.6055 206.895 74.8867C207.165 75.168 207.388 75.4697 207.563 75.792C207.745 76.1084 207.836 76.4512 207.836 76.8203C207.836 77.1191 207.783 77.4121 207.678 77.6992C207.572 77.9805 207.408 78.2324 207.185 78.4551C206.969 78.6777 206.687 78.8594 206.342 79C206.002 79.1348 205.595 79.2021 205.12 79.2021C204.839 79.2021 204.575 79.1758 204.329 79.123C204.089 79.0703 203.866 79.0059 203.661 78.9297C203.462 78.8477 203.28 78.7598 203.116 78.666C202.958 78.5664 202.817 78.4727 202.694 78.3848L202.782 76.7148H202.923C202.981 76.9902 203.069 77.2422 203.186 77.4707C203.304 77.6992 203.447 77.8955 203.617 78.0596C203.793 78.2178 203.992 78.3438 204.215 78.4375C204.437 78.5254 204.681 78.5693 204.944 78.5693C205.378 78.5693 205.721 78.4492 205.973 78.209C206.23 77.9688 206.359 77.6553 206.359 77.2686C206.359 76.958 206.271 76.6738 206.096 76.416C205.926 76.1523 205.709 75.9004 205.445 75.6602C205.182 75.4199 204.897 75.1797 204.593 74.9395C204.294 74.6992 204.013 74.4443 203.749 74.1748C203.485 73.8994 203.266 73.6006 203.09 73.2783C202.92 72.9502 202.835 72.5781 202.835 72.1621C202.835 71.8223 202.896 71.5117 203.019 71.2305C203.148 70.9434 203.324 70.7002 203.547 70.501C203.775 70.2959 204.045 70.1377 204.355 70.0264C204.666 69.915 205.006 69.8594 205.375 69.8594C205.861 69.8594 206.266 69.9121 206.588 70.0176C206.916 70.1172 207.165 70.2139 207.335 70.3076L207.423 71.7666Z" fill="white"/>
<path d="M209.093 74.4824C209.093 73.8203 209.216 73.208 209.462 72.6455C209.708 72.0771 210.045 71.585 210.473 71.1689C210.906 70.7529 211.416 70.4277 212.002 70.1934C212.588 69.959 213.218 69.8418 213.892 69.8418C214.554 69.8418 215.175 69.9531 215.755 70.1758C216.341 70.3926 216.85 70.7031 217.284 71.1074C217.718 71.5117 218.058 72.0039 218.304 72.584C218.556 73.1641 218.682 73.8145 218.682 74.5352C218.682 75.1387 218.576 75.7188 218.365 76.2754C218.154 76.832 217.844 77.3242 217.434 77.752C217.023 78.1797 216.519 78.5225 215.922 78.7803C215.33 79.0322 214.647 79.1582 213.874 79.1582C213.218 79.1582 212.6 79.0498 212.019 78.833C211.439 78.6162 210.933 78.3057 210.499 77.9014C210.065 77.4971 209.723 77.0078 209.471 76.4336C209.219 75.8535 209.093 75.2031 209.093 74.4824ZM214.076 78.5166C214.492 78.5166 214.873 78.4346 215.219 78.2705C215.57 78.1064 215.872 77.8691 216.124 77.5586C216.376 77.248 216.572 76.8701 216.713 76.4248C216.853 75.9795 216.924 75.4756 216.924 74.9131C216.924 74.2803 216.856 73.6943 216.722 73.1553C216.587 72.6104 216.385 72.1416 216.115 71.749C215.851 71.3506 215.517 71.04 215.113 70.8174C214.709 70.5947 214.237 70.4834 213.698 70.4834C213.282 70.4834 212.901 70.5654 212.556 70.7295C212.21 70.8877 211.908 71.1191 211.65 71.4238C211.398 71.7285 211.202 72.1035 211.061 72.5488C210.921 72.9883 210.85 73.4893 210.85 74.0518C210.85 74.6846 210.918 75.2734 211.053 75.8184C211.193 76.3633 211.398 76.8379 211.668 77.2422C211.937 77.6406 212.271 77.9541 212.67 78.1826C213.074 78.4053 213.543 78.5166 214.076 78.5166ZM215.904 67.3896C215.471 67.5361 215.031 67.6914 214.586 67.8555C214.392 67.9258 214.19 68.002 213.979 68.084C213.768 68.166 213.555 68.2539 213.338 68.3477C213.121 68.4414 212.901 68.5381 212.679 68.6377C212.462 68.7314 212.254 68.8311 212.055 68.9365L211.861 68.6113C212.242 68.3594 212.62 68.084 212.995 67.7852C213.376 67.4863 213.725 67.2051 214.041 66.9414C214.404 66.6367 214.756 66.3291 215.096 66.0186L215.904 67.3896Z" fill="white"/>
<path d="M220.659 73.4365C220.659 72.9385 220.65 72.5049 220.633 72.1357C220.621 71.7607 220.603 71.4385 220.58 71.1689C220.562 70.8994 220.536 70.6738 220.501 70.4922C220.472 70.3105 220.439 70.1582 220.404 70.0352V70H222.434V70.0352C222.388 70.1699 222.347 70.334 222.311 70.5273C222.282 70.7207 222.259 70.9697 222.241 71.2744C222.458 71.0928 222.684 70.9141 222.918 70.7383C223.152 70.5625 223.392 70.4072 223.639 70.2725C223.885 70.1377 224.134 70.0293 224.386 69.9473C224.643 69.8652 224.901 69.8242 225.159 69.8242C225.317 69.8242 225.455 69.833 225.572 69.8506C225.689 69.8623 225.795 69.8828 225.889 69.9121C225.982 69.9355 226.067 69.9648 226.143 70C226.22 70.0293 226.293 70.0586 226.363 70.0879L225.933 71.7666L225.783 71.7314C225.713 71.4736 225.581 71.2686 225.388 71.1162C225.194 70.958 224.931 70.8789 224.597 70.8789C224.415 70.8789 224.225 70.9111 224.025 70.9756C223.826 71.04 223.624 71.1309 223.419 71.248C223.214 71.3594 223.009 71.4912 222.804 71.6436C222.599 71.79 222.399 71.9453 222.206 72.1094C222.194 72.2793 222.188 72.4639 222.188 72.6631C222.188 72.8623 222.188 73.0732 222.188 73.2959V75.5635C222.188 76.0615 222.194 76.498 222.206 76.873C222.218 77.2422 222.235 77.5615 222.259 77.8311C222.282 78.1006 222.309 78.3262 222.338 78.5078C222.367 78.6895 222.399 78.8418 222.434 78.9648V79H220.404V78.9648C220.439 78.8418 220.472 78.6895 220.501 78.5078C220.536 78.3262 220.562 78.1006 220.58 77.8311C220.603 77.5615 220.621 77.2422 220.633 76.873C220.65 76.498 220.659 76.0615 220.659 75.5635V73.4365Z" fill="white"/>
<path d="M227.778 73.4365C227.778 72.9385 227.769 72.5049 227.752 72.1357C227.74 71.7607 227.723 71.4385 227.699 71.1689C227.682 70.8994 227.655 70.6738 227.62 70.4922C227.591 70.3105 227.559 70.1582 227.523 70.0352V70H229.554V70.0352C229.518 70.1582 229.486 70.3105 229.457 70.4922C229.428 70.6738 229.401 70.8994 229.378 71.1689C229.354 71.4385 229.337 71.7607 229.325 72.1357C229.313 72.5049 229.308 72.9385 229.308 73.4365V75.5635C229.308 76.0615 229.313 76.498 229.325 76.873C229.337 77.2422 229.354 77.5615 229.378 77.8311C229.401 78.1006 229.428 78.3262 229.457 78.5078C229.486 78.6895 229.518 78.8418 229.554 78.9648V79H227.523V78.9648C227.559 78.8418 227.591 78.6895 227.62 78.5078C227.655 78.3262 227.682 78.1006 227.699 77.8311C227.723 77.5615 227.74 77.2422 227.752 76.873C227.769 76.498 227.778 76.0615 227.778 75.5635V73.4365ZM227.594 67.3369C227.594 67.208 227.617 67.0879 227.664 66.9766C227.717 66.8594 227.784 66.7598 227.866 66.6777C227.948 66.5898 228.045 66.5225 228.156 66.4756C228.273 66.4229 228.399 66.3965 228.534 66.3965C228.669 66.3965 228.792 66.4229 228.903 66.4756C229.02 66.5225 229.12 66.5898 229.202 66.6777C229.29 66.7598 229.357 66.8594 229.404 66.9766C229.457 67.0879 229.483 67.208 229.483 67.3369C229.483 67.6064 229.392 67.832 229.211 68.0137C229.029 68.1953 228.804 68.2861 228.534 68.2861C228.399 68.2861 228.273 68.2627 228.156 68.2158C228.045 68.1631 227.948 68.0957 227.866 68.0137C227.784 67.9258 227.717 67.8262 227.664 67.7148C227.617 67.5977 227.594 67.4717 227.594 67.3369Z" fill="white"/>
<path d="M231.329 74.4824C231.329 73.8203 231.452 73.208 231.698 72.6455C231.944 72.0771 232.281 71.585 232.709 71.1689C233.142 70.7529 233.652 70.4277 234.238 70.1934C234.824 69.959 235.454 69.8418 236.128 69.8418C236.79 69.8418 237.411 69.9531 237.991 70.1758C238.577 70.3926 239.087 70.7031 239.52 71.1074C239.954 71.5117 240.294 72.0039 240.54 72.584C240.792 73.1641 240.918 73.8145 240.918 74.5352C240.918 75.1387 240.812 75.7188 240.601 76.2754C240.391 76.832 240.08 77.3242 239.67 77.752C239.26 78.1797 238.756 78.5225 238.158 78.7803C237.566 79.0322 236.884 79.1582 236.11 79.1582C235.454 79.1582 234.836 79.0498 234.256 78.833C233.676 78.6162 233.169 78.3057 232.735 77.9014C232.302 77.4971 231.959 77.0078 231.707 76.4336C231.455 75.8535 231.329 75.2031 231.329 74.4824ZM236.312 78.5166C236.728 78.5166 237.109 78.4346 237.455 78.2705C237.807 78.1064 238.108 77.8691 238.36 77.5586C238.612 77.248 238.809 76.8701 238.949 76.4248C239.09 75.9795 239.16 75.4756 239.16 74.9131C239.16 74.2803 239.093 73.6943 238.958 73.1553C238.823 72.6104 238.621 72.1416 238.351 71.749C238.088 71.3506 237.754 71.04 237.35 70.8174C236.945 70.5947 236.474 70.4834 235.934 70.4834C235.518 70.4834 235.138 70.5654 234.792 70.7295C234.446 70.8877 234.144 71.1191 233.887 71.4238C233.635 71.7285 233.438 72.1035 233.298 72.5488C233.157 72.9883 233.087 73.4893 233.087 74.0518C233.087 74.6846 233.154 75.2734 233.289 75.8184C233.43 76.3633 233.635 76.8379 233.904 77.2422C234.174 77.6406 234.508 77.9541 234.906 78.1826C235.31 78.4053 235.779 78.5166 236.312 78.5166Z" fill="white"/>
<path d="M246.868 71.7666L246.745 71.7842C246.704 71.6494 246.637 71.5059 246.543 71.3535C246.455 71.2012 246.338 71.0605 246.191 70.9316C246.051 70.8027 245.878 70.6973 245.673 70.6152C245.474 70.5273 245.242 70.4834 244.978 70.4834C244.797 70.4834 244.624 70.5098 244.46 70.5625C244.302 70.6152 244.161 70.6943 244.038 70.7998C243.921 70.8994 243.827 71.0254 243.757 71.1777C243.686 71.3301 243.651 71.5088 243.651 71.7139C243.651 72.001 243.739 72.2764 243.915 72.54C244.097 72.7979 244.322 73.0557 244.592 73.3135C244.861 73.5654 245.151 73.8203 245.462 74.0781C245.778 74.3359 246.071 74.6055 246.341 74.8867C246.61 75.168 246.833 75.4697 247.009 75.792C247.19 76.1084 247.281 76.4512 247.281 76.8203C247.281 77.1191 247.228 77.4121 247.123 77.6992C247.017 77.9805 246.853 78.2324 246.631 78.4551C246.414 78.6777 246.133 78.8594 245.787 79C245.447 79.1348 245.04 79.2021 244.565 79.2021C244.284 79.2021 244.02 79.1758 243.774 79.123C243.534 79.0703 243.311 79.0059 243.106 78.9297C242.907 78.8477 242.725 78.7598 242.561 78.666C242.403 78.5664 242.263 78.4727 242.14 78.3848L242.227 76.7148H242.368C242.427 76.9902 242.515 77.2422 242.632 77.4707C242.749 77.6992 242.892 77.8955 243.062 78.0596C243.238 78.2178 243.437 78.3438 243.66 78.4375C243.883 78.5254 244.126 78.5693 244.39 78.5693C244.823 78.5693 245.166 78.4492 245.418 78.209C245.676 77.9688 245.805 77.6553 245.805 77.2686C245.805 76.958 245.717 76.6738 245.541 76.416C245.371 76.1523 245.154 75.9004 244.891 75.6602C244.627 75.4199 244.343 75.1797 244.038 74.9395C243.739 74.6992 243.458 74.4443 243.194 74.1748C242.931 73.8994 242.711 73.6006 242.535 73.2783C242.365 72.9502 242.28 72.5781 242.28 72.1621C242.28 71.8223 242.342 71.5117 242.465 71.2305C242.594 70.9434 242.769 70.7002 242.992 70.501C243.221 70.2959 243.49 70.1377 243.801 70.0264C244.111 69.915 244.451 69.8594 244.82 69.8594C245.307 69.8594 245.711 69.9121 246.033 70.0176C246.361 70.1172 246.61 70.2139 246.78 70.3076L246.868 71.7666Z" fill="white"/>
<path d="M28.3288 22.7054C28.6694 23.0267 28.9972 23.3481 29.3218 23.692C29.8778 24.2544 30.4274 24.8264 30.9833 25.392C31.7868 26.2126 32.5913 27.03 33.3968 27.8441C34.0942 28.5511 34.8012 29.2485 35.489 29.9652C35.9517 30.4504 36.4145 30.9293 36.8227 31.4628C37.2239 32.0092 37.5103 32.6312 37.6646 33.2914C37.8562 33.9834 37.9065 34.707 37.8125 35.4188C37.809 35.6651 37.7821 35.9104 37.7321 36.1516C37.5618 36.6336 37.3433 37.1157 37.1247 37.5656C36.9608 37.9159 36.768 38.2533 36.5816 38.594C36.1703 39.3621 35.7589 40.1334 35.3379 40.8982C34.9716 41.5667 34.5988 42.2351 34.226 42.9004C33.805 43.646 33.3743 44.3851 32.9405 45.1339C32.6416 45.6706 32.3652 46.2169 32.0664 46.7569C31.745 47.3642 31.385 47.9652 31.0444 48.5726C30.7037 49.18 30.347 49.8099 30.0064 50.4333C29.8103 50.7868 29.6304 51.15 29.4407 51.5099C29.2929 51.7863 29.1451 52.0627 28.9844 52.3359C28.9669 52.3739 28.9415 52.4078 28.91 52.4354C28.8786 52.4631 28.8416 52.4838 28.8016 52.4962C28.7616 52.5086 28.7195 52.5125 28.6779 52.5076C28.6363 52.5026 28.5962 52.489 28.5602 52.4676C27.9914 52.217 27.3968 52.0113 26.8473 51.7285C26.171 51.3571 25.5712 50.8609 25.0797 50.2662C24.4862 49.5555 24.0493 48.7277 23.7974 47.8367C23.6781 47.4298 23.6079 47.0101 23.5886 46.5865C23.5596 46.1109 23.6303 45.6224 23.6143 45.1564C23.6006 44.5477 23.7202 43.9433 23.9646 43.3857C24.2182 42.8357 24.5003 42.2994 24.8098 41.7788C24.9469 41.5214 25.0993 41.2725 25.2661 41.0332C25.842 40.1897 26.5009 39.4059 27.2329 38.6936C27.6571 38.2919 28.0653 37.8773 28.5184 37.4917C28.9715 37.106 29.4825 36.7172 29.9581 36.3219C30.4001 35.992 30.7762 35.5822 31.0669 35.1135C31.3465 34.6058 31.6325 34.1012 31.9089 33.5902C31.95 33.5108 31.9772 33.425 31.9892 33.3364C32.1049 32.5779 32.2206 31.8163 32.3106 31.0514C32.3135 30.8958 32.2973 30.7403 32.2624 30.5886L32.3202 30.5597C32.3909 30.624 32.4649 30.6883 32.5323 30.759C32.8537 31.1092 33.2072 31.4499 33.4965 31.8195C33.5918 31.9401 33.6608 32.0793 33.699 32.2282C33.7372 32.3771 33.7438 32.5324 33.7182 32.684C33.6186 33.3312 33.3855 33.9506 33.0337 34.5029C32.6577 35.1232 32.2431 35.7241 31.8253 36.3219C31.504 36.7943 31.1376 37.2507 30.7744 37.7006C30.4113 38.1505 30.0996 38.4976 29.7557 38.8897C29.55 39.1211 29.3122 39.3332 29.1322 39.5806C29.1069 39.6388 29.0972 39.7026 29.1039 39.7657C29.1107 39.8288 29.1337 39.889 29.1708 39.9405C29.2275 40.0039 29.3071 40.0422 29.392 40.0471C29.477 40.0519 29.5604 40.0228 29.6239 39.9663C29.9453 39.6449 30.2313 39.3235 30.5205 39.0021C30.964 38.4912 31.4075 37.977 31.835 37.4531C32.0944 37.1393 32.3359 36.811 32.558 36.4697C33.0101 35.7691 33.4515 35.0621 33.8821 34.3487C33.9899 34.1439 34.076 33.9285 34.1392 33.7059C34.294 33.3639 34.3802 32.9949 34.3931 32.6197C34.3993 32.1262 34.2231 31.6478 33.8982 31.2764C33.053 30.3669 32.1917 29.4703 31.3272 28.5736C30.6845 27.9309 30.0417 27.2881 29.399 26.6197C28.9437 26.1846 28.5276 25.7103 28.1553 25.2024C27.9165 24.8587 27.7934 24.448 27.8038 24.0296C27.8142 23.6113 27.9576 23.2071 28.2131 22.8757C28.2271 22.8561 28.24 22.8357 28.2517 22.8146L28.3288 22.7054Z" fill="white"/>
<path d="M24.3856 41.0333L27.2297 27.9824C27.8463 28.1497 28.3837 28.53 28.7466 29.0558C28.9777 29.3694 29.1345 29.7313 29.2052 30.1143C29.2759 30.4974 29.2586 30.8915 29.1547 31.2668C28.7498 33.0762 28.377 34.8887 28.0235 36.7077C27.9398 37.0449 27.7506 37.3466 27.4836 37.569C27.0658 37.9867 26.6287 38.3852 26.227 38.8127C25.8253 39.2401 25.4911 39.6289 25.1504 40.0532C24.9383 40.3135 24.7712 40.6027 24.5848 40.8791C24.5398 40.9434 24.4916 41.0044 24.4434 41.0655L24.3856 41.0333Z" fill="white"/>
<path d="M33.6089 14.2599C33.7696 14.6424 33.9303 15.0023 34.0685 15.3622C34.3288 16.005 34.5795 16.6252 34.8398 17.2519C35.1322 17.9589 35.4279 18.6595 35.7236 19.3633C36.0192 20.0671 36.331 20.8384 36.6523 21.5776C36.8998 22.1817 37.1505 22.7827 37.3915 23.3869C37.6036 23.9236 37.8318 24.4538 38.0085 24.9937C38.1198 25.3761 38.1972 25.7676 38.2399 26.1635C38.2913 26.5556 38.3074 26.9541 38.3235 27.3526C38.3164 27.5043 38.3014 27.6556 38.2785 27.8058C38.2631 28.2366 38.2202 28.6659 38.1499 29.0912C38.0889 28.9113 38.0149 28.7313 37.9635 28.5481C37.7243 27.8439 37.3691 27.1846 36.9126 26.5974C36.4916 25.9996 36.0481 25.389 35.6882 24.7463C35.446 24.239 35.2377 23.7161 35.0648 23.1812C34.7787 22.4421 34.4895 21.7061 34.2035 20.967C33.9496 20.3242 33.7021 19.6525 33.445 18.9969C33.1879 18.3413 32.9244 17.7372 32.693 17.1009C32.5428 16.7706 32.4784 16.4076 32.5059 16.0458C32.5335 15.684 32.652 15.335 32.8505 15.0312C33.0548 14.7306 33.3118 14.4693 33.6089 14.2599Z" fill="white"/>
<path d="M37.7354 31.5494C37.324 31.0448 36.9351 30.521 36.4884 30.0389C35.9517 29.4605 35.354 28.927 34.8077 28.3517C34.616 28.1219 34.4451 27.8757 34.2967 27.6158C33.851 26.9302 33.4075 26.2435 32.9662 25.5558C32.5484 24.9131 32.1435 24.2703 31.7225 23.6276C31.3015 22.9848 30.8966 22.4256 30.5109 21.8086C30.2185 21.3394 29.8682 20.8927 29.7943 20.3207C29.751 20.0229 29.7694 19.7195 29.8485 19.4292C29.9275 19.139 30.0655 18.8681 30.2538 18.6335L30.4595 18.386C30.7809 18.7813 31.1022 19.1734 31.3786 19.5815C31.7932 20.16 32.1853 20.7545 32.5838 21.3458C32.8666 21.7604 33.1365 22.1814 33.4161 22.5992L35.5018 25.7101C35.9839 26.4267 36.5077 27.1273 36.9319 27.8761C37.1983 28.3504 37.3891 28.8632 37.4975 29.3962C37.5983 30.035 37.6659 30.6786 37.7 31.3244C37.7078 31.4 37.7196 31.4751 37.7354 31.5494Z" fill="white"/>
<path d="M17.8649 22.6057C17.5018 22.9271 17.1515 23.2228 16.8108 23.5313C16.2163 24.0615 15.6282 24.6014 15.0368 25.1381L12.4659 27.4456C11.7235 28.1108 10.9715 28.7664 10.2388 29.4413C9.74706 29.888 9.25536 30.3572 8.81187 30.8521C8.37358 31.3732 8.04559 31.9778 7.84775 32.6293C7.61234 33.3081 7.51509 34.027 7.56173 34.7439C7.54808 34.9897 7.55884 35.2362 7.59387 35.4799C7.73206 35.9684 7.91524 36.444 8.10485 36.9228C8.24625 37.2828 8.42622 37.6299 8.58048 37.9834C8.94363 38.7739 9.30357 39.5645 9.66993 40.3519C9.99345 41.0439 10.3202 41.7316 10.6501 42.4151C11.0229 43.1832 11.4053 43.948 11.7717 44.7161C12.0352 45.2721 12.2763 45.8345 12.5366 46.3872C12.8322 47.0139 13.1375 47.6342 13.4396 48.2576C13.7417 48.8811 14.0534 49.5431 14.3523 50.1859C14.5259 50.5522 14.6737 50.925 14.8472 51.2914C14.9758 51.5774 15.1075 51.8634 15.2457 52.143C15.2609 52.1824 15.2841 52.2181 15.3141 52.2478C15.344 52.2775 15.3798 52.3006 15.4193 52.3155C15.4588 52.3303 15.5009 52.3367 15.543 52.3341C15.5851 52.3315 15.6262 52.3201 15.6635 52.3005C16.2484 52.082 16.8526 51.9116 17.4214 51.6578C18.1278 51.3282 18.7648 50.8668 19.2982 50.2983C19.9456 49.6263 20.4448 48.826 20.7637 47.9491C20.9105 47.551 21.0087 47.1367 21.0561 46.715C21.114 46.2426 21.0754 45.7509 21.1236 45.2849C21.1727 44.6816 21.0882 44.0748 20.8762 43.5078C20.6609 42.9369 20.4153 42.378 20.1402 41.8334C20.0202 41.5682 19.8839 41.3106 19.7321 41.0621C19.2117 40.1879 18.6056 39.3675 17.9228 38.6133C17.5243 38.1891 17.145 37.752 16.7305 37.3278C16.3159 36.9036 15.8178 36.4954 15.3711 36.0744C14.951 35.7215 14.6019 35.2918 14.3427 34.8082C14.0984 34.2844 13.8478 33.7638 13.6035 33.2399C13.5679 33.1584 13.5462 33.0715 13.5393 32.9828C13.475 32.2147 13.4075 31.4499 13.3593 30.6818C13.368 30.5252 13.3938 30.37 13.4364 30.219L13.3818 30.1869C13.3079 30.2512 13.2275 30.309 13.1568 30.3765C12.8065 30.6979 12.4369 31.0192 12.1124 31.3792C12.0091 31.4933 11.9309 31.6277 11.8828 31.7738C11.8346 31.9199 11.8176 32.0745 11.8328 32.2276C11.8893 32.8795 12.082 33.5123 12.3984 34.0851C12.7198 34.7279 13.1054 35.3481 13.4846 35.9684C13.7867 36.4569 14.1274 36.9325 14.4487 37.4049C14.7701 37.8773 15.069 38.2373 15.3871 38.6486C15.5767 38.8929 15.7985 39.1178 15.9624 39.3749C15.985 39.4344 15.9912 39.4989 15.9805 39.5616C15.9697 39.6243 15.9424 39.683 15.9013 39.7316C15.8715 39.7618 15.8359 39.7857 15.7968 39.802C15.7576 39.8183 15.7156 39.8267 15.6732 39.8267C15.6307 39.8267 15.5887 39.8183 15.5496 39.802C15.5104 39.7857 15.4749 39.7618 15.445 39.7316C15.159 39.4103 14.8826 39.0535 14.6158 38.7032C14.2045 38.1698 13.7963 37.6331 13.4043 37.0964C13.1704 36.7685 12.9558 36.4272 12.7615 36.0744C12.3534 35.3481 11.9613 34.6186 11.5789 33.8827C11.4846 33.6766 11.4125 33.4612 11.3636 33.2399C11.2318 32.8889 11.1696 32.5156 11.1804 32.1408C11.2086 31.6476 11.4154 31.1816 11.7621 30.8296C12.6362 29.9716 13.5553 29.1264 14.4777 28.2812C15.1558 27.6609 15.8628 27.0632 16.5377 26.4397C17.0226 26.034 17.4701 25.5855 17.8746 25.0996C18.1349 24.7718 18.2842 24.3697 18.301 23.9514C18.3177 23.5332 18.201 23.1204 17.9678 22.7728L17.9356 22.7086C17.9228 22.6893 17.9067 22.67 17.8649 22.6057Z" fill="white"/>
<path d="M20.9244 43.4402C20.2624 39.0503 19.2757 32.34 18.6137 27.934C17.9862 28.0688 17.4257 28.419 17.0293 28.9238C16.7787 29.223 16.5988 29.5749 16.5031 29.9533C16.4074 30.3317 16.3983 30.7268 16.4766 31.1092C16.7637 32.9367 17.0208 34.7685 17.2479 36.6046C17.3106 36.9455 17.4807 37.2574 17.7332 37.4948C18.122 37.9351 18.5334 38.3593 18.9062 38.8092C19.279 39.2591 19.5843 39.6641 19.8992 40.0947C20.092 40.3679 20.2399 40.6668 20.4102 40.9528C20.4487 41.0203 20.4937 41.0813 20.5355 41.1456C20.558 41.136 20.9051 43.4498 20.9244 43.4402Z" fill="white"/>
<path d="M13.1472 13.874C12.9608 14.2435 12.7872 14.5938 12.6137 14.9441C12.3148 15.558 12.0224 16.175 11.7235 16.7888C11.4021 17.4733 11.0422 18.1579 10.7015 18.8456C10.3609 19.5333 9.97844 20.2821 9.63136 21.002C9.34213 21.5869 9.05611 22.1739 8.7733 22.7631C8.52584 23.287 8.26232 23.8011 8.05343 24.3378C7.91252 24.7122 7.80497 25.0983 7.73205 25.4916C7.65492 25.8804 7.61315 26.2789 7.57137 26.6742C7.56709 26.8265 7.57245 26.9789 7.58744 27.1306C7.57317 27.5659 7.58605 28.0016 7.626 28.4353C7.70313 28.2586 7.78669 28.085 7.84775 27.9051C8.13804 27.2185 8.54101 26.5852 9.04004 26.0315C9.4996 25.4369 9.98166 24.8488 10.3834 24.2189C10.6579 23.7255 10.8994 23.2145 11.1065 22.6892C11.445 21.9736 11.7803 21.2548 12.1124 20.5328C12.408 19.8901 12.7005 19.2473 12.9993 18.6046C13.2982 17.9618 13.6003 17.3544 13.8735 16.7438C14.0452 16.4247 14.1335 16.0673 14.1301 15.7049C14.1268 15.3425 14.0319 14.9869 13.8542 14.671C13.667 14.366 13.4277 14.0962 13.1472 13.874Z" fill="white"/>
<path d="M7.89596 30.8909C8.33945 30.4121 8.76366 29.9107 9.23929 29.4576C9.81455 28.908 10.4444 28.4099 11.0293 27.87C11.2341 27.6502 11.42 27.4137 11.5853 27.163L13.0508 25.1833C13.5071 24.5631 13.957 23.9364 14.4198 23.3162C14.8826 22.6959 15.3229 22.1656 15.7439 21.5711C16.0652 21.118 16.4605 20.6938 16.5569 20.1281C16.621 19.8347 16.6232 19.5311 16.5634 19.2367C16.5037 18.9424 16.3832 18.6637 16.2098 18.4184C16.1359 18.3124 16.0588 18.2096 16.0202 18.1581C15.6989 18.5374 15.3421 18.9069 15.0272 19.2958C14.5741 19.8518 14.1563 20.4238 13.7064 20.9894C13.385 21.3879 13.099 21.7929 12.7937 22.1946L10.5087 25.1769C9.98166 25.8678 9.41283 26.5363 8.9372 27.2594C8.64023 27.7166 8.41684 28.2176 8.27517 28.7441C8.13273 29.3805 8.02544 30.0242 7.9538 30.6724C7.93131 30.7559 7.90881 30.8523 7.89596 30.8909Z" fill="white"/>
<path fill-rule="evenodd" clip-rule="evenodd" d="M22.4862 0.643678C16.7826 0.643678 11.3125 2.90946 7.27939 6.94256C3.24628 10.9757 0.980501 16.4457 0.980501 22.1494V55.3563H43.5742V21.7316C43.5742 18.9623 43.0288 16.2201 41.969 13.6616C40.9092 11.1031 39.3559 8.7784 37.3977 6.8202C35.4395 4.862 33.1148 3.30867 30.5563 2.2489C27.9977 1.18913 25.2556 0.643678 22.4862 0.643678ZM6.82424 6.48742C10.9781 2.33359 16.6119 0 22.4862 0C25.3401 0 28.166 0.562106 30.8026 1.65422C33.4392 2.74634 35.8349 4.34708 37.8528 6.36505C39.8708 8.38302 41.4715 10.7787 42.5637 13.4153C43.6558 16.0519 44.2179 18.8778 44.2179 21.7316V56H0.336823V22.1494C0.336823 16.275 2.67042 10.6412 6.82424 6.48742Z" fill="white"/>
<path d="M22.8141 9.45207L24.5045 12.5405L27.5929 14.2277L24.5045 15.9149L22.8141 19.0032L21.1268 15.9149L18.0385 14.2277L21.1268 12.5405L22.8141 9.45207Z" fill="white"/>
<path d="M122.799 30.8683C124.513 31.7724 126.413 32.7547 128.497 33.8153C130.576 34.8765 132.498 36.2209 134.208 37.8099C135.937 39.4103 136.803 41.6782 136.805 44.6134C136.805 48.5577 135.511 51.315 132.923 52.8855C130.334 54.4559 127.348 55.2422 123.963 55.2443C121.921 55.2758 119.906 54.774 118.117 53.7885C116.502 52.9309 115.17 51.6252 114.28 50.0285L115.748 48.5405C116.354 50.2652 117.608 51.6857 119.245 52.4998C120.786 53.3145 122.527 53.6745 124.265 53.5378C125.932 53.4086 127.515 52.7486 128.78 51.6546C130.089 50.5384 130.744 48.9315 130.744 46.834C130.801 44.6508 129.97 42.9551 128.25 41.7467C126.43 40.4782 124.517 39.3501 122.526 38.3723C120.513 37.3798 118.588 36.2165 116.774 34.8951C115.03 33.6096 114.157 31.8045 114.154 29.4799C114.154 25.5528 115.448 22.7997 118.037 21.2207C120.625 19.6417 123.611 18.8511 126.996 18.849C130.504 18.849 133.324 20.0273 135.458 22.3841L134.15 23.692C133.129 22.3944 131.735 21.441 130.156 20.9604C128.675 20.4846 127.096 20.3994 125.573 20.7129C124.123 21.0067 122.799 21.742 121.784 22.8179C120.734 23.9277 120.209 25.4007 120.209 27.2368C120.209 28.7536 121.072 29.9641 122.799 30.8683Z" fill="white"/>
<path d="M79.3626 53.6405H61.1698V18.8842H55.0991V55.2763H79.3626V53.6405Z" fill="white"/>
<path d="M108.453 20.491V18.8842H84.1929V55.2763H108.453V53.6213H90.2636V37.874H102.383V36.2672H90.2636V20.491H108.453Z" fill="white"/>
<path d="M187.157 55.2763H193.228V18.8842H187.157L173.525 48.0872L159.918 18.8842H153.214V55.2763H154.84V22.3389L170.186 55.2763H171.969L174.428 50.0155L187.157 22.6988V55.2763Z" fill="white"/>
<path d="M211.061 26.0604L205.919 37.0738L197.454 55.2763H195.67L204.132 37.0835L210.193 24.145L212.629 18.8842H214.413L231.375 55.2763H224.693L211.061 26.0604Z" fill="white"/>
<path d="M241.443 18.8842H235.373V55.2763H241.443V18.8842Z" fill="white"/>
<path d="M248.395 18.8842L276.2 46.6893V18.8842H277.823V55.2763H276.2L248.395 27.4616V55.2763H246.769V18.8842H248.395Z" fill="white"/>
<path d="M297.349 33.8153C295.265 32.7547 293.365 31.7724 291.651 30.8683C289.929 29.9641 289.068 28.7515 289.068 27.2303C289.07 25.3942 289.592 23.9234 290.636 22.8179C291.644 21.7448 292.96 21.0096 294.402 20.7129C295.926 20.3994 297.504 20.4846 298.985 20.9604C300.564 21.4419 301.958 22.3952 302.98 23.692L304.288 22.3841C302.15 20.0273 299.329 18.849 295.826 18.849C292.441 18.8511 289.454 19.6417 286.866 21.2207C284.278 22.7997 282.984 25.5528 282.984 29.4799C282.984 31.8045 283.856 33.6096 285.6 34.8951C287.415 36.2172 289.341 37.3805 291.356 38.3723C293.345 39.3501 295.258 40.4782 297.076 41.7467C298.801 42.9551 299.632 44.6508 299.57 46.834C299.572 48.9315 298.918 50.5384 297.606 51.6546C296.346 52.7466 294.77 53.4066 293.107 53.5378C291.373 53.6716 289.636 53.3117 288.097 52.4998C286.465 51.6818 285.215 50.2623 284.61 48.5405L283.145 50.0285C284.032 51.6263 285.364 52.9324 286.979 53.7885C288.767 54.7744 290.782 55.2762 292.824 55.2443C296.207 55.2422 299.193 54.4559 301.781 52.8855C304.369 51.315 305.663 48.5577 305.663 44.6134C305.663 41.6782 304.799 39.4103 303.07 37.8099C301.356 36.2209 299.431 34.8766 297.349 33.8153Z" fill="white"/>
<path fill-rule="evenodd" clip-rule="evenodd" d="M202.977 40.5832L223.381 40.5511L223.384 42.5626L202.98 42.5947L202.977 40.5832Z" fill="white"/>
<path d="M238.377 8.7391L234.01 13.1067L238.377 17.4744L242.745 13.1067L238.377 8.7391Z" fill="white"/>
</svg>
