<svg width="175" height="32" viewBox="0 0 175 32" fill="none" xmlns="http://www.w3.org/2000/svg">
<path d="M15.9954 12.9745C16.1901 13.1581 16.3774 13.3418 16.5629 13.5383C16.8806 13.8596 17.1946 14.1865 17.5123 14.5097C17.9714 14.9786 18.4311 15.4457 18.8914 15.9109C19.2899 16.3149 19.6939 16.7134 20.0869 17.1229C20.3514 17.4002 20.6158 17.6739 20.849 17.9787C21.0783 18.291 21.242 18.6464 21.3302 19.0236C21.4396 19.4191 21.4684 19.8325 21.4147 20.2393C21.4127 20.38 21.3973 20.5202 21.3687 20.658C21.2714 20.9335 21.1465 21.209 21.0217 21.4661C20.928 21.6662 20.8178 21.8591 20.7113 22.0537C20.4763 22.4926 20.2412 22.9334 20.0006 23.3704C19.7913 23.7524 19.5782 24.1344 19.3652 24.5145C19.1247 24.9406 18.8786 25.3629 18.6307 25.7908C18.4599 26.0975 18.3019 26.4097 18.1312 26.7182C17.9475 27.0653 17.7418 27.4087 17.5472 27.7558C17.3525 28.1029 17.1487 28.4628 16.954 28.819C16.842 29.0211 16.7392 29.2286 16.6308 29.4342C16.5463 29.5922 16.4619 29.7501 16.37 29.9062C16.36 29.9279 16.3455 29.9473 16.3276 29.9631C16.3096 29.9789 16.2885 29.9907 16.2656 29.9978C16.2427 30.0049 16.2186 30.0071 16.1949 30.0043C16.1711 30.0015 16.1482 29.9937 16.1276 29.9815C15.8026 29.8383 15.4629 29.7207 15.1488 29.5591C14.7624 29.3469 14.4197 29.0634 14.1388 28.7236C13.7997 28.3174 13.55 27.8444 13.4061 27.3352C13.3378 27.1027 13.2978 26.8629 13.2867 26.6209C13.2702 26.3491 13.3106 26.0699 13.3014 25.8037C13.2936 25.4558 13.3619 25.1105 13.5016 24.7918C13.6465 24.4775 13.8077 24.1711 13.9845 23.8736C14.0629 23.7265 14.15 23.5843 14.2453 23.4475C14.5744 22.9655 14.9509 22.5176 15.3692 22.1106C15.6116 21.8811 15.8448 21.6442 16.1038 21.4238C16.3627 21.2035 16.6547 20.9812 16.9265 20.7554C17.179 20.5669 17.3939 20.3327 17.56 20.0649C17.7198 19.7747 17.8832 19.4864 18.0412 19.1944C18.0647 19.149 18.0802 19.1 18.0871 19.0493C18.1532 18.616 18.2193 18.1807 18.2707 17.7437C18.2724 17.6547 18.2631 17.5659 18.2432 17.4792L18.2762 17.4627C18.3166 17.4994 18.3589 17.5361 18.3974 17.5765C18.5811 17.7767 18.7831 17.9714 18.9484 18.1826C19.0029 18.2515 19.0423 18.331 19.0641 18.4161C19.0859 18.5012 19.0897 18.5899 19.0751 18.6766C19.0181 19.0464 18.8849 19.4003 18.6839 19.716C18.4691 20.0704 18.2322 20.4138 17.9934 20.7554C17.8098 21.0253 17.6004 21.2861 17.3929 21.5432C17.1854 21.8003 17.0073 21.9986 16.8108 22.2227C16.6932 22.3549 16.5574 22.4761 16.4545 22.6175C16.4401 22.6507 16.4345 22.6872 16.4384 22.7232C16.4422 22.7593 16.4554 22.7937 16.4766 22.8232C16.509 22.8594 16.5544 22.8813 16.603 22.884C16.6515 22.8868 16.6992 22.8702 16.7355 22.8379C16.9191 22.6542 17.0826 22.4706 17.2478 22.2869C17.5013 21.9949 17.7547 21.7011 17.9989 21.4018C18.1472 21.2225 18.2852 21.0348 18.4121 20.8398C18.6705 20.4395 18.9226 20.0355 19.1687 19.6278C19.2303 19.5108 19.2795 19.3877 19.3156 19.2605C19.4041 19.0651 19.4534 18.8542 19.4607 18.6398C19.4643 18.3578 19.3636 18.0845 19.1779 17.8722C18.6949 17.3525 18.2028 16.8401 17.7088 16.3278C17.3415 15.9605 16.9742 15.5932 16.6069 15.2112C16.3468 14.9626 16.109 14.6916 15.8962 14.4014C15.7598 14.205 15.6895 13.9703 15.6954 13.7312C15.7014 13.4922 15.7833 13.2612 15.9293 13.0718C15.9373 13.0606 15.9447 13.049 15.9513 13.0369L15.9954 12.9745Z" fill="#1D3557"/>
<path d="M13.7421 23.4476L15.3674 15.99C15.7197 16.0855 16.0268 16.3028 16.2341 16.6033C16.3662 16.7825 16.4558 16.9893 16.4962 17.2082C16.5366 17.4271 16.5267 17.6523 16.4674 17.8668C16.236 18.9007 16.023 19.9364 15.821 20.9758C15.7731 21.1685 15.665 21.3409 15.5124 21.468C15.2737 21.7067 15.0239 21.9344 14.7944 22.1787C14.5648 22.4229 14.3739 22.6451 14.1792 22.8875C14.058 23.0363 13.9625 23.2015 13.856 23.3595C13.8303 23.3962 13.8027 23.4311 13.7752 23.466L13.7421 23.4476Z" fill="#1D3557"/>
<path d="M19.0126 8.14853C19.1045 8.36706 19.1963 8.57274 19.2752 8.77842C19.424 9.1457 19.5672 9.50013 19.716 9.85823C19.8831 10.2622 20.052 10.6626 20.221 11.0647C20.3899 11.4669 20.5681 11.9077 20.7517 12.33C20.8931 12.6753 21.0364 13.0187 21.1741 13.3639C21.2953 13.6706 21.4257 13.9736 21.5267 14.2821C21.5903 14.5006 21.6345 14.7243 21.6589 14.9506C21.6883 15.1746 21.6975 15.4024 21.7067 15.6301C21.7026 15.7168 21.6941 15.8032 21.6809 15.889C21.6722 16.1352 21.6477 16.3805 21.6075 16.6236C21.5726 16.5207 21.5304 16.4179 21.501 16.3132C21.3643 15.9108 21.1613 15.534 20.9005 15.1985C20.6599 14.8569 20.4065 14.508 20.2008 14.1407C20.0624 13.8508 19.9434 13.5521 19.8445 13.2464C19.6811 12.824 19.5158 12.4035 19.3524 11.9811C19.2073 11.6138 19.0659 11.23 18.919 10.8554C18.7721 10.4808 18.6215 10.1355 18.4893 9.77192C18.4034 9.58317 18.3666 9.37579 18.3823 9.16903C18.3981 8.96227 18.4658 8.76284 18.5792 8.58927C18.696 8.41747 18.8428 8.26817 19.0126 8.14853Z" fill="#1D3557"/>
<path d="M21.3706 18.0282C21.1355 17.7399 20.9133 17.4406 20.6581 17.1651C20.3514 16.8346 20.0098 16.5297 19.6976 16.201C19.5881 16.0697 19.4904 15.9289 19.4056 15.7805C19.151 15.3887 18.8976 14.9963 18.6454 14.6033C18.4066 14.236 18.1752 13.8688 17.9347 13.5015C17.6941 13.1342 17.4627 12.8147 17.2423 12.4621C17.0752 12.1939 16.8751 11.9387 16.8328 11.6118C16.8081 11.4417 16.8186 11.2683 16.8638 11.1024C16.909 10.9366 16.9878 10.7818 17.0954 10.6477L17.213 10.5063C17.3966 10.7322 17.5802 10.9562 17.7382 11.1894C17.9751 11.52 18.1991 11.8597 18.4268 12.1976C18.5884 12.4345 18.7427 12.6751 18.9025 12.9138L20.0943 14.6915C20.3697 15.101 20.6691 15.5013 20.9115 15.9292C21.0637 16.2002 21.1727 16.4933 21.2347 16.7978C21.2923 17.1629 21.3309 17.5306 21.3504 17.8997C21.3549 17.9429 21.3616 17.9858 21.3706 18.0282Z" fill="#1D3557"/>
<path d="M10.0161 12.9176C9.80854 13.1012 9.60837 13.2701 9.41371 13.4464C9.07397 13.7494 8.73791 14.058 8.40001 14.3646L6.93088 15.6832C6.50667 16.0633 6.07695 16.438 5.65825 16.8236C5.37728 17.0789 5.09631 17.347 4.84288 17.6298C4.59243 17.9275 4.40501 18.273 4.29196 18.6453C4.15744 19.0332 4.10187 19.444 4.12852 19.8537C4.12072 19.9941 4.12687 20.135 4.14688 20.2742C4.22585 20.5534 4.33052 20.8251 4.43887 21.0988C4.51967 21.3044 4.62251 21.5028 4.71066 21.7048C4.91818 22.1565 5.12385 22.6083 5.3332 23.0582C5.51807 23.4537 5.70477 23.8466 5.89331 24.2372C6.10633 24.6761 6.32487 25.1132 6.53422 25.5521C6.6848 25.8698 6.82253 26.1911 6.97128 26.507C7.14023 26.8651 7.31469 27.2195 7.48732 27.5758C7.65994 27.9321 7.83807 28.3104 8.00886 28.6776C8.10802 28.887 8.1925 29.1 8.29166 29.3094C8.36512 29.4728 8.44041 29.6362 8.51938 29.796C8.52802 29.8185 8.54133 29.8389 8.55842 29.8559C8.57552 29.8729 8.59601 29.8861 8.61856 29.8946C8.64111 29.9031 8.6652 29.9067 8.68925 29.9052C8.7133 29.9037 8.73677 29.8972 8.75811 29.886C9.09234 29.7611 9.43758 29.6638 9.76263 29.5187C10.1663 29.3304 10.5303 29.0667 10.8351 28.7419C11.205 28.3579 11.4903 27.9006 11.6725 27.3995C11.7564 27.172 11.8125 26.9352 11.8396 26.6943C11.8727 26.4244 11.8506 26.1434 11.8782 25.8771C11.9062 25.5323 11.8579 25.1856 11.7368 24.8616C11.6138 24.5354 11.4734 24.216 11.3162 23.9048C11.2476 23.7532 11.1698 23.606 11.083 23.4641C10.7856 22.9645 10.4393 22.4957 10.0491 22.0647C9.82139 21.8223 9.6047 21.5726 9.3678 21.3302C9.1309 21.0877 8.84626 20.8545 8.591 20.614C8.35094 20.4123 8.1515 20.1667 8.00335 19.8904C7.86378 19.5911 7.72054 19.2936 7.58097 18.9942C7.56062 18.9477 7.5482 18.898 7.54424 18.8473C7.50752 18.4084 7.46895 17.9714 7.4414 17.5325C7.44638 17.443 7.46116 17.3543 7.48548 17.268L7.45426 17.2496C7.41202 17.2864 7.36611 17.3194 7.32571 17.358C7.12554 17.5416 6.91435 17.7253 6.72888 17.931C6.66989 17.9961 6.6252 18.073 6.59768 18.1565C6.57017 18.24 6.56043 18.3283 6.56911 18.4158C6.60144 18.7883 6.71155 19.1499 6.89232 19.4772C7.07596 19.8445 7.29633 20.1989 7.51302 20.5534C7.68565 20.8325 7.88031 21.1043 8.06395 21.3742C8.24759 21.6442 8.41838 21.8499 8.60018 22.0849C8.70853 22.2245 8.83524 22.353 8.9289 22.4999C8.94179 22.534 8.94536 22.5708 8.93922 22.6066C8.93309 22.6425 8.91748 22.676 8.89401 22.7038C8.87694 22.721 8.85662 22.7347 8.83425 22.744C8.81187 22.7533 8.78786 22.7581 8.76362 22.7581C8.73938 22.7581 8.71537 22.7533 8.693 22.744C8.67062 22.7347 8.65031 22.721 8.63324 22.7038C8.4698 22.5201 8.31186 22.3163 8.15944 22.1161C7.92438 21.8113 7.69116 21.5046 7.46711 21.1979C7.33348 21.0106 7.21084 20.8156 7.09983 20.614C6.86661 20.1989 6.64257 19.7821 6.42403 19.3615C6.37019 19.2438 6.32894 19.1207 6.30099 18.9942C6.22573 18.7937 6.19017 18.5803 6.19632 18.3662C6.21247 18.0844 6.33061 17.818 6.52871 17.6169C7.02821 17.1266 7.55343 16.6436 8.08048 16.1607C8.46796 15.8062 8.87197 15.4647 9.25762 15.1084C9.53474 14.8766 9.79042 14.6203 10.0216 14.3426C10.1703 14.1553 10.2556 13.9255 10.2652 13.6865C10.2748 13.4475 10.2081 13.2117 10.0748 13.013L10.0565 12.9763C10.0491 12.9653 10.0399 12.9543 10.0161 12.9176Z" fill="#1D3557"/>
<path d="M11.7643 24.823C11.386 22.3144 10.8222 18.48 10.4439 15.9623C10.0854 16.0393 9.76505 16.2394 9.53859 16.5279C9.39536 16.6989 9.29258 16.9 9.23789 17.1162C9.1832 17.3324 9.17801 17.5582 9.22272 17.7767C9.38678 18.821 9.53369 19.8677 9.66346 20.9169C9.69932 21.1117 9.79648 21.2899 9.94076 21.4256C10.163 21.6772 10.398 21.9196 10.611 22.1767C10.8241 22.4338 10.9985 22.6652 11.1785 22.9113C11.2887 23.0674 11.3732 23.2381 11.4705 23.4016C11.4925 23.4402 11.5182 23.475 11.5421 23.5118C11.555 23.5063 11.7533 24.8285 11.7643 24.823Z" fill="#1D3557"/>
<path d="M7.3202 7.92798C7.21369 8.13917 7.11452 8.33934 7.01536 8.53951C6.84457 8.89026 6.67746 9.24285 6.50667 9.59361C6.32303 9.98476 6.11735 10.3759 5.92269 10.7689C5.72803 11.1619 5.5095 11.5898 5.31117 12.0011C5.14589 12.3354 4.98245 12.6708 4.82084 13.0075C4.67944 13.3068 4.52885 13.6007 4.40949 13.9073C4.32897 14.1213 4.26751 14.3419 4.22585 14.5666C4.18177 14.7888 4.1579 15.0165 4.13403 15.2424C4.13158 15.3294 4.13465 15.4165 4.14321 15.5032C4.13506 15.7519 4.14242 16.0009 4.16524 16.2488C4.20932 16.1478 4.25707 16.0486 4.29196 15.9458C4.45784 15.5534 4.68811 15.1916 4.97327 14.8751C5.23587 14.5354 5.51133 14.1993 5.74089 13.8394C5.89774 13.5574 6.03577 13.2654 6.15408 12.9653C6.34751 12.5563 6.53911 12.1456 6.72887 11.733C6.89782 11.3657 7.06494 10.9985 7.23572 10.6312C7.40651 10.2639 7.57913 9.91681 7.73523 9.5679C7.83337 9.38554 7.88383 9.18132 7.8819 8.97424C7.87997 8.76715 7.82573 8.56392 7.72421 8.38341C7.61724 8.20912 7.4805 8.05497 7.3202 7.92798Z" fill="#1D3557"/>
<path d="M4.3195 17.6519C4.57293 17.3783 4.81534 17.0918 5.08712 16.8329C5.41584 16.5189 5.77578 16.2342 6.11 15.9257C6.22699 15.8001 6.33326 15.665 6.4277 15.5217L7.26511 14.3905C7.52588 14.036 7.78298 13.6779 8.04742 13.3235C8.31186 12.9691 8.56345 12.6661 8.80402 12.3263C8.98766 12.0674 9.21354 11.825 9.26863 11.5018C9.30522 11.3341 9.30649 11.1606 9.27234 10.9924C9.23819 10.8242 9.16938 10.665 9.0703 10.5248C9.02806 10.4642 8.98399 10.4055 8.96195 10.3761C8.77831 10.5928 8.57447 10.804 8.3945 11.0262C8.13557 11.3439 7.89683 11.6707 7.63974 11.994C7.45609 12.2217 7.29265 12.4531 7.1182 12.6826L5.81251 14.3868C5.51134 14.7816 5.18629 15.1636 4.9145 15.5768C4.74481 15.8381 4.61715 16.1244 4.5362 16.4252C4.4548 16.7888 4.3935 17.1567 4.35256 17.5271C4.3397 17.5748 4.32685 17.6299 4.3195 17.6519Z" fill="#1D3557"/>
<path fill-rule="evenodd" clip-rule="evenodd" d="M12.6568 0.367816C9.39757 0.367816 6.27181 1.66255 3.96718 3.96718C1.66255 6.27181 0.367816 9.39757 0.367816 12.6568V31.6322H24.7071V12.4181C24.7071 10.8356 24.3954 9.26865 23.7898 7.80664C23.1842 6.34464 22.2966 5.01623 21.1776 3.89726C20.0587 2.77829 18.7303 1.89067 17.2682 1.28509C15.8062 0.679505 14.2393 0.367816 12.6568 0.367816ZM3.70709 3.70709C6.08071 1.33348 9.30002 0 12.6568 0C14.2876 0 15.9024 0.321203 17.409 0.94527C18.9156 1.56934 20.2846 2.48405 21.4377 3.63717C22.5908 4.7903 23.5056 6.15926 24.1296 7.66589C24.7537 9.17252 25.0749 10.7873 25.0749 12.4181V32H0V12.6568C0 9.30002 1.33348 6.08071 3.70709 3.70709Z" fill="#1D3557"/>
<path d="M12.8441 5.40118L13.8101 7.16597L15.5749 8.13009L13.8101 9.0942L12.8441 10.859L11.88 9.0942L10.1152 8.13009L11.88 7.16597L12.8441 5.40118Z" fill="#1D3557"/>
<path d="M69.9786 17.639C70.958 18.1557 72.0433 18.717 73.2345 19.323C74.4225 19.9295 75.5207 20.6976 76.4978 21.6057C77.4858 22.5202 77.9804 23.8161 77.9816 25.4933C77.9816 27.7472 77.2422 29.3229 75.7633 30.2203C74.2843 31.1177 72.5777 31.567 70.6433 31.5682C69.4765 31.5862 68.3251 31.2994 67.3029 30.7363C66.3803 30.2462 65.6189 29.5001 65.1102 28.5877L65.9495 27.7374C66.2955 28.723 67.0123 29.5347 67.9475 29.9999C68.8281 30.4654 69.8229 30.6712 70.816 30.5931C71.7689 30.5192 72.6731 30.1421 73.3961 29.5169C74.1442 28.8791 74.5182 27.9609 74.5182 26.7623C74.5512 25.5148 74.0762 24.5458 73.0931 23.8553C72.0534 23.1304 70.9601 22.4858 69.8225 21.927C68.672 21.3599 67.5722 20.6951 66.5353 19.94C65.5387 19.2055 65.0398 18.174 65.0386 16.8457C65.0386 14.6016 65.7781 13.0284 67.257 12.1261C68.7359 11.2238 70.4426 10.7721 72.3769 10.7708C74.381 10.7708 75.9928 11.4442 77.2122 12.7909L76.4648 13.5383C75.8814 12.7968 75.0847 12.252 74.1821 11.9774C73.3359 11.7055 72.4339 11.6568 71.5634 11.836C70.7348 12.0038 69.9785 12.424 69.3983 13.0388C68.7984 13.673 68.4984 14.5147 68.4984 15.5639C68.4984 16.4307 68.9918 17.1224 69.9786 17.639Z" fill="#1D3557"/>
<path d="M45.1576 30.6517H34.7617V10.7909H31.2927V31.5865H45.1576V30.6517Z" fill="#1D3557"/>
<path d="M61.7808 11.7092V10.7909H47.9177V31.5865H61.7808V30.6407H51.3867V21.6423H58.3118V20.7241H51.3867V11.7092H61.7808Z" fill="#1D3557"/>
<path d="M106.755 31.5865H110.224V10.7909H106.755L98.9645 27.4784L91.1891 10.7909H87.3584V31.5865H88.2876V12.7651L97.0564 31.5865H98.0756L99.4805 28.5803L106.755 12.9708V31.5865Z" fill="#1D3557"/>
<path d="M120.414 14.8917L117.475 21.185L112.638 31.5865H111.619L116.454 21.1905L119.918 13.7972L121.31 10.7909H122.329L132.022 31.5865H128.204L120.414 14.8917Z" fill="#1D3557"/>
<path d="M137.775 10.7909H134.306V31.5865H137.775V10.7909Z" fill="#1D3557"/>
<path d="M141.747 10.7909L157.636 26.6796V10.7909H158.563V31.5865H157.636L141.747 15.6923V31.5865H140.818V10.7909H141.747Z" fill="#1D3557"/>
<path d="M169.721 19.323C168.53 18.717 167.445 18.1557 166.465 17.639C165.481 17.1224 164.989 16.4294 164.989 15.5602C164.99 14.511 165.289 13.6705 165.885 13.0388C166.461 12.4256 167.213 12.0055 168.037 11.836C168.908 11.6568 169.81 11.7055 170.656 11.9774C171.558 12.2525 172.355 12.7972 172.939 13.5383L173.686 12.7909C172.464 11.4442 170.853 10.7708 168.851 10.7708C166.917 10.7721 165.21 11.2238 163.731 12.1261C162.252 13.0284 161.513 14.6016 161.513 16.8457C161.513 18.174 162.011 19.2055 163.007 19.94C164.045 20.6955 165.145 21.3603 166.296 21.927C167.434 22.4858 168.526 23.1304 169.565 23.8553C170.551 24.5458 171.026 25.5148 170.99 26.7623C170.992 27.9609 170.618 28.8791 169.868 29.5169C169.148 30.1409 168.247 30.518 167.297 30.5931C166.306 30.6695 165.314 30.4638 164.434 29.9999C163.502 29.5325 162.788 28.7213 162.442 27.7374L161.604 28.5877C162.112 29.5007 162.873 30.2471 163.795 30.7363C164.817 31.2997 165.969 31.5864 167.136 31.5682C169.069 31.567 170.775 31.1177 172.254 30.2203C173.733 29.3229 174.472 27.7472 174.472 25.4933C174.472 23.8161 173.978 22.5202 172.99 21.6057C172.011 20.6977 170.911 19.9295 169.721 19.323Z" fill="#1D3557"/>
<path fill-rule="evenodd" clip-rule="evenodd" d="M115.794 23.1904L127.454 23.1721L127.455 24.3215L115.796 24.3398L115.794 23.1904Z" fill="#1D3557"/>
<path d="M136.023 4.99377L133.527 7.48956L136.023 9.98535L138.519 7.48956L136.023 4.99377Z" fill="#1D3557"/>
</svg>
