<svg width="144" height="144" viewBox="0 0 144 144" fill="none" xmlns="http://www.w3.org/2000/svg">
<path d="M141.128 64.2137C139.797 62.6553 138.889 60.7816 138.489 58.7717C138.089 56.7618 138.212 54.683 138.845 52.7339V52.7339C139.726 50.0216 139.611 47.0838 138.52 44.4488C137.429 41.8138 135.434 39.6545 132.893 38.3593V38.3593C131.066 37.4282 129.509 36.0448 128.368 34.3411C127.228 32.6373 126.543 30.6699 126.379 28.6264C126.156 25.7818 124.925 23.1103 122.907 21.0927C120.89 19.0751 118.218 17.8439 115.374 17.6208V17.6208C113.33 17.4566 111.363 16.7717 109.659 15.6315C107.955 14.4913 106.572 12.9337 105.641 11.1073V11.1073C104.345 8.56641 102.186 6.57103 99.5512 5.47998C96.9162 4.38892 93.9784 4.27378 91.2661 5.15526C89.317 5.78837 87.2382 5.91089 85.2283 5.51109C83.2184 5.1113 81.3447 4.20256 79.7863 2.87179V2.87179C77.6154 1.01829 74.8545 0 72 0C69.1455 0 66.3846 1.01829 64.2137 2.87179V2.87179C62.6553 4.20256 60.7816 5.1113 58.7717 5.51109C56.7618 5.91089 54.683 5.78837 52.7339 5.15526C50.0216 4.27378 47.0838 4.38892 44.4488 5.47998C41.8138 6.57103 39.6545 8.56641 38.3593 11.1073V11.1073C37.4282 12.9337 36.0448 14.4913 34.3411 15.6315C32.6373 16.7717 30.6699 17.4566 28.6264 17.6208C25.7818 17.8439 23.1103 19.0751 21.0927 21.0927C19.0751 23.1103 17.8439 25.7818 17.6208 28.6264C17.4566 30.6699 16.7717 32.6373 15.6315 34.3411C14.4913 36.0448 12.9337 37.4282 11.1073 38.3593C8.56641 39.6545 6.57103 41.8138 5.47998 44.4488C4.38892 47.0838 4.27378 50.0216 5.15526 52.7339V52.7339C5.78837 54.683 5.91089 56.7618 5.51109 58.7717C5.1113 60.7816 4.20256 62.6553 2.87179 64.2137C1.01829 66.3846 0 69.1455 0 72C0 74.8545 1.01829 77.6154 2.87179 79.7863C4.20256 81.3447 5.1113 83.2184 5.51109 85.2283C5.91089 87.2382 5.78837 89.317 5.15526 91.2661C4.27378 93.9784 4.38892 96.9162 5.47998 99.5512C6.57103 102.186 8.56641 104.345 11.1073 105.641C12.9337 106.572 14.4913 107.955 15.6315 109.659C16.7717 111.363 17.4566 113.33 17.6208 115.374C17.8439 118.218 19.0751 120.89 21.0927 122.907C23.1103 124.925 25.7818 126.156 28.6264 126.379V126.379C30.6699 126.543 32.6373 127.228 34.3411 128.368C36.0448 129.509 37.4282 131.066 38.3593 132.893C39.6545 135.434 41.8138 137.429 44.4488 138.52C47.0838 139.611 50.0216 139.726 52.7339 138.845V138.845C54.683 138.212 56.7618 138.089 58.7717 138.489C60.7816 138.889 62.6553 139.797 64.2137 141.128V141.128C66.3846 142.982 69.1455 144 72 144C74.8545 144 77.6154 142.982 79.7863 141.128V141.128C81.3447 139.797 83.2184 138.889 85.2283 138.489C87.2382 138.089 89.317 138.212 91.2661 138.845V138.845C93.9784 139.726 96.9162 139.611 99.5512 138.52C102.186 137.429 104.345 135.434 105.641 132.893C106.572 131.066 107.955 129.509 109.659 128.368C111.363 127.228 113.33 126.543 115.374 126.379V126.379C118.218 126.156 120.89 124.925 122.907 122.907C124.925 120.89 126.156 118.218 126.379 115.374C126.543 113.33 127.228 111.363 128.368 109.659C129.509 107.955 131.066 106.572 132.893 105.641C135.434 104.345 137.429 102.186 138.52 99.5512C139.611 96.9162 139.726 93.9784 138.845 91.2661C138.212 89.317 138.089 87.2382 138.489 85.2283C138.889 83.2184 139.797 81.3447 141.128 79.7863C142.982 77.6154 144 74.8545 144 72C144 69.1455 142.982 66.3846 141.128 64.2137V64.2137ZM72 132.706C59.99 132.708 48.2491 129.149 38.2622 122.478C28.2752 115.807 20.4909 106.324 15.8938 95.2291C11.2966 84.1338 10.0931 71.9244 12.4356 60.1451C14.778 48.3658 20.5611 37.5457 29.0534 29.0534C37.5457 20.5611 48.3658 14.778 60.1451 12.4356C71.9244 10.0931 84.1338 11.2966 95.2291 15.8938C106.324 20.4909 115.807 28.2752 122.478 38.2622C129.149 48.2491 132.708 59.99 132.706 72C132.686 88.094 126.284 103.523 114.903 114.903C103.523 126.284 88.094 132.686 72 132.706V132.706Z" fill="#EBCFC4"/>
<circle cx="72.3725" cy="72.3723" r="56.1511" fill="#EBCFC4"/>
<path d="M74.802 40.0795C74.4693 38.6819 73.887 37.6338 73.0551 36.935C72.2565 36.2362 71.0919 35.8869 69.5613 35.8869C67.2653 35.8869 65.5683 36.8186 64.4702 38.6819C63.4054 40.512 62.8564 43.5068 62.8231 47.6661C63.6217 46.3351 64.7863 45.3036 66.317 44.5716C67.8476 43.8062 69.5114 43.4236 71.3082 43.4236C73.471 43.4236 75.3843 43.8894 77.0481 44.8211C78.7118 45.7528 80.0095 47.1171 80.9412 48.9139C81.8729 50.6775 82.3388 52.8071 82.3388 55.3027C82.3388 57.6652 81.8563 59.7781 80.8913 61.6415C79.9596 63.4716 78.5787 64.9024 76.7486 65.9339C74.9185 66.9654 72.739 67.4812 70.2101 67.4812C66.7496 67.4812 64.021 66.7159 62.0245 65.1852C60.0613 63.6546 58.6804 61.525 57.8818 58.7965C57.1165 56.0347 56.7339 52.6407 56.7339 48.6144C56.7339 42.5252 57.782 37.9333 59.8783 34.8387C61.9746 31.7109 65.2855 30.147 69.8108 30.147C73.3047 30.147 76.0166 31.0953 77.9465 32.992C79.8764 34.8886 80.9911 37.2511 81.2906 40.0795H74.802ZM69.711 49.1635C67.9474 49.1635 66.4667 49.6792 65.2688 50.7107C64.0709 51.7423 63.472 53.2396 63.472 55.2028C63.472 57.166 64.021 58.7133 65.1191 59.8447C66.2504 60.976 67.831 61.5417 69.8607 61.5417C71.6576 61.5417 73.0717 60.9926 74.1033 59.8946C75.1681 58.7965 75.7005 57.3158 75.7005 55.4524C75.7005 53.5225 75.1847 51.9918 74.1532 50.8605C73.1549 49.7291 71.6742 49.1635 69.711 49.1635Z" fill="#BF613F"/>
<path d="M53.0235 75.0329C54.2114 75.0329 55.1664 75.3998 55.8885 76.1335C56.6222 76.8555 56.989 77.8687 56.989 79.1731V84.8506H54.5433V79.505C54.5433 78.748 54.3512 78.1715 53.9668 77.7756C53.5825 77.3679 53.0584 77.1641 52.3946 77.1641C51.7308 77.1641 51.2009 77.3679 50.8049 77.7756C50.4206 78.1715 50.2284 78.748 50.2284 79.505V84.8506H47.7827V79.505C47.7827 78.748 47.5906 78.1715 47.2062 77.7756C46.8219 77.3679 46.2978 77.1641 45.634 77.1641C44.9585 77.1641 44.4228 77.3679 44.0268 77.7756C43.6425 78.1715 43.4504 78.748 43.4504 79.505V84.8506H41.0047V75.1726H43.4504V76.3431C43.7648 75.9355 44.1666 75.6152 44.6557 75.3823C45.1565 75.1494 45.7039 75.0329 46.2978 75.0329C47.0548 75.0329 47.7303 75.1959 48.3243 75.522C48.9182 75.8365 49.3783 76.2907 49.7043 76.8846C50.0188 76.3256 50.473 75.8772 51.0669 75.5395C51.6725 75.2018 52.3247 75.0329 53.0235 75.0329Z" fill="#BF613F"/>
<path d="M68.3065 79.802C68.3065 80.1514 68.2832 80.4658 68.2366 80.7453H61.1616C61.2198 81.4441 61.4644 81.9915 61.8953 82.3874C62.3262 82.7834 62.8561 82.9814 63.485 82.9814C64.3934 82.9814 65.0397 82.5912 65.4241 81.811H68.0619C67.7824 82.7426 67.2467 83.5113 66.4547 84.1169C65.6628 84.7108 64.6903 85.0078 63.5374 85.0078C62.6057 85.0078 61.7672 84.804 61.0218 84.3964C60.2881 83.9771 59.7116 83.389 59.2924 82.632C58.8847 81.875 58.6809 81.0016 58.6809 80.0116C58.6809 79.0101 58.8847 78.1308 59.2924 77.3738C59.7 76.6168 60.2706 76.0345 61.0043 75.6269C61.738 75.2192 62.5824 75.0154 63.5374 75.0154C64.4574 75.0154 65.2785 75.2134 66.0005 75.6094C66.7342 76.0053 67.2991 76.5702 67.6951 77.3039C68.1027 78.026 68.3065 78.8587 68.3065 79.802ZM65.7734 79.1032C65.7618 78.4743 65.5347 77.9735 65.0921 77.6009C64.6496 77.2165 64.108 77.0244 63.4675 77.0244C62.8619 77.0244 62.3495 77.2107 61.9302 77.5834C61.5226 77.9444 61.2722 78.451 61.179 79.1032H65.7734Z" fill="#BF613F"/>
<path d="M73.7951 85.0078C73.0032 85.0078 72.2927 84.8681 71.6638 84.5886C71.035 84.2974 70.5342 83.9073 70.1615 83.4181C69.8005 82.929 69.6025 82.3874 69.5675 81.7935H72.0307C72.0773 82.1662 72.2578 82.4748 72.5722 82.7194C72.8983 82.9639 73.3001 83.0862 73.7776 83.0862C74.2435 83.0862 74.6045 82.993 74.8607 82.8067C75.1286 82.6204 75.2625 82.3816 75.2625 82.0905C75.2625 81.776 75.0995 81.5431 74.7734 81.3917C74.4589 81.2286 73.9523 81.054 73.2535 80.8676C72.5315 80.6929 71.9375 80.5124 71.4717 80.3261C71.0175 80.1397 70.6215 79.8544 70.2838 79.4701C69.9577 79.0858 69.7946 78.5675 69.7946 77.9153C69.7946 77.3796 69.946 76.8905 70.2488 76.4479C70.5633 76.0054 71.0058 75.656 71.5765 75.3997C72.1588 75.1435 72.8401 75.0154 73.6204 75.0154C74.7734 75.0154 75.6934 75.3066 76.3805 75.8889C77.0677 76.4596 77.4462 77.234 77.516 78.2123H75.1752C75.1402 77.828 74.9772 77.5252 74.686 77.3039C74.4065 77.071 74.028 76.9545 73.5505 76.9545C73.108 76.9545 72.7644 77.036 72.5198 77.1991C72.2869 77.3621 72.1704 77.5892 72.1704 77.8804C72.1704 78.2065 72.3335 78.4569 72.6596 78.6316C72.9857 78.7946 73.4923 78.9635 74.1794 79.1382C74.8782 79.3129 75.4547 79.4934 75.9089 79.6797C76.3631 79.866 76.7532 80.1572 77.0793 80.5532C77.417 80.9375 77.5917 81.4499 77.6034 82.0905C77.6034 82.6495 77.4462 83.1503 77.1317 83.5928C76.8289 84.0354 76.3864 84.3848 75.804 84.641C75.2334 84.8855 74.5637 85.0078 73.7951 85.0078Z" fill="#BF613F"/>
<path d="M88.6076 79.802C88.6076 80.1514 88.5843 80.4658 88.5377 80.7453H81.4627C81.5209 81.4441 81.7655 81.9915 82.1964 82.3874C82.6273 82.7834 83.1572 82.9814 83.7861 82.9814C84.6945 82.9814 85.3409 82.5912 85.7252 81.811H88.3631C88.0835 82.7426 87.5478 83.5113 86.7559 84.1169C85.964 84.7108 84.9915 85.0078 83.8385 85.0078C82.9068 85.0078 82.0683 84.804 81.323 84.3964C80.5893 83.9771 80.0128 83.389 79.5935 82.632C79.1859 81.875 78.9821 81.0016 78.9821 80.0116C78.9821 79.0101 79.1859 78.1308 79.5935 77.3738C80.0011 76.6168 80.5718 76.0345 81.3055 75.6269C82.0392 75.2192 82.8835 75.0154 83.8385 75.0154C84.7586 75.0154 85.5796 75.2134 86.3017 75.6094C87.0354 76.0053 87.6002 76.5702 87.9962 77.3039C88.4038 78.026 88.6076 78.8587 88.6076 79.802ZM86.0746 79.1032C86.0629 78.4743 85.8358 77.9735 85.3933 77.6009C84.9507 77.2165 84.4092 77.0244 83.7687 77.0244C83.1631 77.0244 82.6506 77.2107 82.2314 77.5834C81.8237 77.9444 81.5734 78.451 81.4802 79.1032H86.0746Z" fill="#BF613F"/>
<path d="M94.0962 85.0078C93.3043 85.0078 92.5939 84.8681 91.965 84.5886C91.3361 84.2974 90.8353 83.9073 90.4626 83.4181C90.1016 82.929 89.9036 82.3874 89.8687 81.7935H92.3318C92.3784 82.1662 92.5589 82.4748 92.8734 82.7194C93.1995 82.9639 93.6013 83.0862 94.0788 83.0862C94.5446 83.0862 94.9056 82.993 95.1619 82.8067C95.4297 82.6204 95.5637 82.3816 95.5637 82.0905C95.5637 81.776 95.4006 81.5431 95.0745 81.3917C94.7601 81.2286 94.2535 81.054 93.5547 80.8676C92.8326 80.6929 92.2387 80.5124 91.7728 80.3261C91.3186 80.1397 90.9227 79.8544 90.5849 79.4701C90.2588 79.0858 90.0958 78.5675 90.0958 77.9153C90.0958 77.3796 90.2472 76.8905 90.55 76.4479C90.8644 76.0054 91.307 75.656 91.8776 75.3997C92.46 75.1435 93.1413 75.0154 93.9215 75.0154C95.0745 75.0154 95.9946 75.3066 96.6817 75.8889C97.3688 76.4596 97.7473 77.234 97.8172 78.2123H95.4763C95.4414 77.828 95.2783 77.5252 94.9872 77.3039C94.7077 77.071 94.3292 76.9545 93.8517 76.9545C93.4091 76.9545 93.0656 77.036 92.821 77.1991C92.5881 77.3621 92.4716 77.5892 92.4716 77.8804C92.4716 78.2065 92.6346 78.4569 92.9607 78.6316C93.2868 78.7946 93.7934 78.9635 94.4806 79.1382C95.1793 79.3129 95.7558 79.4934 96.21 79.6797C96.6642 79.866 97.0544 80.1572 97.3805 80.5532C97.7182 80.9375 97.8929 81.4499 97.9045 82.0905C97.9045 82.6495 97.7473 83.1503 97.4329 83.5928C97.1301 84.0354 96.6875 84.3848 96.1052 84.641C95.5345 84.8855 94.8649 85.0078 94.0962 85.0078Z" fill="#BF613F"/>
<path d="M37.4942 97.8378C37.3645 97.6282 37.1798 97.4685 36.9402 97.3587C36.7006 97.2389 36.4111 97.179 36.0717 97.179C35.4329 97.179 34.9387 97.3886 34.5893 97.8079C34.24 98.2171 34.0653 98.7811 34.0653 99.4999C34.0653 100.328 34.2599 100.947 34.6492 101.357C35.0385 101.766 35.6375 101.971 36.4461 101.971C37.2147 101.971 37.8336 101.661 38.3028 101.042H35.6525V98.6913H41.0579V102.015C40.5988 102.804 39.9649 103.483 39.1563 104.052C38.3477 104.611 37.3245 104.89 36.0867 104.89C34.9886 104.89 34.0303 104.666 33.2118 104.217C32.4032 103.757 31.7793 103.119 31.3401 102.3C30.9108 101.481 30.6962 100.548 30.6962 99.4999C30.6962 98.4517 30.9108 97.5184 31.3401 96.6998C31.7793 95.8813 32.4032 95.2474 33.2118 94.7982C34.0203 94.339 34.9687 94.1094 36.0568 94.1094C37.4443 94.1094 38.5723 94.4438 39.4408 95.1126C40.3192 95.7814 40.8383 96.6898 40.998 97.8378H37.4942Z" fill="#BF613F"/>
<path d="M49.0532 103.213H45.5194L44.9953 104.816H41.5064L45.3846 94.2142H49.2179L53.0811 104.816H49.5772L49.0532 103.213ZM48.2446 100.713L47.2863 97.7629L46.328 100.713H48.2446Z" fill="#BF613F"/>
<path d="M59.1669 104.816L57.1754 101.012H57.1604V104.816H53.8363V94.2142H58.7776C59.6361 94.2142 60.3698 94.3689 60.9787 94.6784C61.5876 94.9778 62.0418 95.3921 62.3413 95.9212C62.6508 96.4403 62.8055 97.0292 62.8055 97.6881C62.8055 98.3968 62.6058 99.0257 62.2065 99.5747C61.8172 100.124 61.2532 100.518 60.5145 100.758L62.8205 104.816H59.1669ZM57.1604 98.7961H58.4781C58.7975 98.7961 59.0371 98.7262 59.1968 98.5865C59.3566 98.4368 59.4364 98.2072 59.4364 97.8977C59.4364 97.6182 59.3516 97.3986 59.1819 97.2389C59.0222 97.0791 58.7876 96.9993 58.4781 96.9993H57.1604V98.7961Z" fill="#BF613F"/>
<path d="M70.6655 103.213H67.1317L66.6076 104.816H63.1188L66.9969 94.2142H70.8302L74.6934 104.816H71.1895L70.6655 103.213ZM69.8569 100.713L68.8986 97.7629L67.9403 100.713H69.8569Z" fill="#BF613F"/>
<path d="M85.6157 104.816H82.2915L78.7727 99.4849V104.816H75.4486V94.2142H78.7727L82.2915 99.6346V94.2142H85.6157V104.816Z" fill="#BF613F"/>
<path d="M95.4428 94.2142V96.8495H92.6278V104.816H89.3036V96.8495H86.5186V94.2142H95.4428Z" fill="#BF613F"/>
<path d="M99.6686 94.2142V104.816H96.3444V94.2142H99.6686Z" fill="#BF613F"/>
<path d="M107.968 103.213H104.434L103.91 104.816H100.421L104.299 94.2142H108.133L111.996 104.816H108.492L107.968 103.213ZM107.159 100.713L106.201 97.7629L105.243 100.713H107.159Z" fill="#BF613F"/>
</svg>
