<svg xmlns="http://www.w3.org/2000/svg" viewBox="0 0 95.75 133.98"><defs><style>.cls-1{fill:#bf613f;}</style></defs><g id="Layer_2" data-name="Layer 2"><g id="Camada_1" data-name="Camada 1"><path class="cls-1" d="M64.65,41.25c1.06,1,2.08,2,3.09,3.06,1.73,1.76,3.44,3.54,5.17,5.3l7.51,7.62c2.17,2.2,4.37,4.38,6.51,6.61a60.86,60.86,0,0,1,4.15,4.66,15.55,15.55,0,0,1,2.62,5.69,16.64,16.64,0,0,1,.46,6.62,12.15,12.15,0,0,1-.25,2.28c-.53,1.49-1.21,3-1.89,4.39-.51,1.09-1.11,2.14-1.69,3.21-1.28,2.39-2.56,4.78-3.87,7.16-1.14,2.09-2.3,4.16-3.46,6.23-1.31,2.32-2.65,4.63-4,7-.93,1.67-1.79,3.38-2.72,5-1,1.89-2.12,3.77-3.18,5.65s-2.17,3.86-3.23,5.79c-.61,1.11-1.17,2.24-1.76,3.35-.46.86-.92,1.73-1.42,2.57a.91.91,0,0,1-1.32.41c-1.77-.77-3.62-1.42-5.33-2.3a19,19,0,0,1-5.5-4.54,20.6,20.6,0,0,1-4.08-7.57,16.49,16.49,0,0,1-.65-3.88c-.09-1.48.13-3,.08-4.46a13,13,0,0,1,1.13-5.47,55.43,55.43,0,0,1,2.63-5.07,22.16,22.16,0,0,1,1.42-2.32A47.61,47.61,0,0,1,61.24,91c1.32-1.25,2.59-2.54,4-3.73s3-2.42,4.48-3.65a13.57,13.57,0,0,0,3.45-3.76c.87-1.58,1.76-3.15,2.62-4.73A2.43,2.43,0,0,0,76,74.3c.36-2.37.72-4.74,1-7.11a6,6,0,0,0-.15-1.45l.18-.09c.22.21.45.41.66.63,1,1.09,2.1,2.14,3,3.3a3.38,3.38,0,0,1,.69,2.68,14.75,14.75,0,0,1-2.13,5.67c-1.17,1.93-2.46,3.8-3.76,5.65-1,1.47-2.14,2.89-3.27,4.3s-2.1,2.47-3.17,3.69c-.64.73-1.38,1.38-1.94,2.15a1.11,1.11,0,0,0,.12,1.12,1,1,0,0,0,1.41.08c1-1,1.89-2,2.79-3,1.38-1.59,2.76-3.18,4.09-4.81A35,35,0,0,0,77.84,84Q80,80.75,82,77.41a10.2,10.2,0,0,0,.8-2,8.89,8.89,0,0,0,.79-3.37A6.21,6.21,0,0,0,82,67.9c-2.63-2.84-5.31-5.63-8-8.41-2-2.05-4.05-4-6-6.09A33.41,33.41,0,0,1,64.11,49a6.13,6.13,0,0,1,.18-7.24,1.32,1.32,0,0,0,.12-.2Z"/><path class="cls-1" d="M52.38,98.27l8.85-40.6A8.39,8.39,0,0,1,66,61a8,8,0,0,1,1.27,6.88C66,73.51,64.8,79.16,63.7,84.82A5.05,5.05,0,0,1,62,87.49c-1.3,1.3-2.66,2.54-3.91,3.87s-2.29,2.54-3.35,3.86C54.1,96,53.58,96.94,53,97.8c-.14.2-.29.38-.44.57Z"/><path class="cls-1" d="M81.08,15c.5,1.19,1,2.3,1.43,3.43.81,2,1.59,3.92,2.4,5.88q1.36,3.28,2.75,6.57c1,2.29,1.93,4.59,2.89,6.89.77,1.87,1.55,3.75,2.3,5.63.66,1.66,1.37,3.31,1.92,5A21.51,21.51,0,0,1,95.49,52c.16,1.23.21,2.47.26,3.7a13.92,13.92,0,0,1-.14,1.42,31,31,0,0,1-.4,4c-.19-.56-.42-1.11-.58-1.68a20.53,20.53,0,0,0-3.27-6.07c-1.31-1.93-2.69-3.84-3.8-5.87a40.29,40.29,0,0,1-1.94-4.88L82.94,35.8c-.79-2-1.56-4.09-2.36-6.14s-1.62-3.91-2.34-5.9a6.68,6.68,0,0,1,.49-6.43A9.09,9.09,0,0,1,81.08,15Z"/><path class="cls-1" d="M93.92,68.76c-1.28-1.56-2.49-3.2-3.88-4.69-1.67-1.81-3.53-3.47-5.23-5.25a15.94,15.94,0,0,1-1.59-2.3q-2.09-3.19-4.14-6.4c-1.3-2-2.56-4-3.87-6s-2.57-3.74-3.77-5.66c-.91-1.46-2-2.85-2.23-4.62a6.85,6.85,0,0,1,1.43-5.26c.25-.31.51-.61.64-.76,1,1.23,2,2.44,2.86,3.71,1.29,1.81,2.51,3.65,3.75,5.49.88,1.3,1.72,2.61,2.59,3.91q3.24,4.83,6.49,9.67c1.5,2.24,3.13,4.42,4.45,6.74A16.24,16.24,0,0,1,93.18,62a57.94,57.94,0,0,1,.63,6A6.47,6.47,0,0,0,93.92,68.76Z"/><path class="cls-1" d="M32.09,40.93c-1.13,1-2.22,1.92-3.28,2.88-1.85,1.66-3.68,3.33-5.52,5L15.3,56C13,58.05,10.65,60.1,8.37,62.2a61.75,61.75,0,0,0-4.45,4.41,15.66,15.66,0,0,0-3,5.53A16.81,16.81,0,0,0,0,78.73,11.48,11.48,0,0,0,.14,81c.43,1.53,1,3,1.59,4.5.44,1.11,1,2.2,1.48,3.29,1.13,2.46,2.25,4.93,3.39,7.38q1.52,3.21,3.05,6.41c1.16,2.4,2.35,4.77,3.49,7.17.82,1.72,1.57,3.47,2.38,5.19.92,2,1.87,3.88,2.81,5.83s1.91,4,2.84,6c.54,1.14,1,2.3,1.54,3.45.4.88.81,1.77,1.24,2.65a.93.93,0,0,0,1.3.48c1.82-.67,3.7-1.21,5.47-2a19.4,19.4,0,0,0,5.79-4.22,20.81,20.81,0,0,0,4.56-7.32A16.28,16.28,0,0,0,42,116c.18-1.47.06-3,.21-4.45a12.76,12.76,0,0,0-.77-5.52,51.14,51.14,0,0,0-2.29-5.21,22,22,0,0,0-1.27-2.4,47.29,47.29,0,0,0-5.63-7.62c-1.24-1.32-2.42-2.68-3.71-4s-2.84-2.58-4.23-3.89a13.48,13.48,0,0,1-3.2-4c-.76-1.63-1.54-3.25-2.3-4.88a2.41,2.41,0,0,1-.2-.8c-.2-2.38-.41-4.77-.56-7.16a6.58,6.58,0,0,1,.24-1.43l-.17-.1c-.23.19-.48.38-.7.58-1.09,1-2.24,2-3.25,3.12a3.44,3.44,0,0,0-.87,2.64A14.56,14.56,0,0,0,15,76.7c1,2,2.2,3.94,3.38,5.86.94,1.53,1.95,3,3,4.48.93,1.31,1.93,2.59,2.92,3.87.59.76,1.28,1.45,1.79,2.25a1.11,1.11,0,0,1-.19,1.11,1,1,0,0,1-1.42,0c-.89-1-1.75-2.11-2.58-3.19-1.28-1.67-2.55-3.34-3.77-5a32.49,32.49,0,0,1-2-3.19c-1.27-2.25-2.49-4.53-3.68-6.82a9.8,9.8,0,0,1-.67-2,9,9,0,0,1-.57-3.41A6.36,6.36,0,0,1,13,66.53c2.81-2.67,5.67-5.31,8.54-7.93,2.11-1.93,4.31-3.78,6.41-5.72a33.51,33.51,0,0,0,4.16-4.18,6.14,6.14,0,0,0,.29-7.24,1.24,1.24,0,0,1-.1-.2Z"/><path class="cls-1" d="M41.61,105.77c-2.06-13.67-5.13-34.55-7.19-48.25a8.45,8.45,0,0,0-4.93,3.06,8,8,0,0,0-1.72,6.79q1.34,8.53,2.4,17.1a5,5,0,0,0,1.51,2.77c1.21,1.37,2.49,2.69,3.65,4.09s2.11,2.67,3.09,4c.6.84,1.06,1.77,1.59,2.67.12.2.26.4.39.6C40.47,98.62,41.54,105.8,41.61,105.77Z"/><path class="cls-1" d="M17.41,13.76c-.58,1.16-1.12,2.24-1.66,3.34C14.82,19,13.91,20.92,13,22.83,11.93,25,10.86,27.1,9.8,29.23S7.57,33.7,6.47,35.94c-.9,1.83-1.79,3.65-2.67,5.49C3,43.05,2.21,44.66,1.56,46.32a21.23,21.23,0,0,0-1,3.6C.36,51.13.23,52.36.09,53.59A13.49,13.49,0,0,0,.15,55a32.51,32.51,0,0,0,.12,4.06c.24-.54.5-1.08.69-1.64a20.87,20.87,0,0,1,3.67-5.88c1.43-1.85,2.93-3.67,4.18-5.63a41.37,41.37,0,0,0,2.25-4.76l3.13-6.72c.92-2,1.83-4,2.76-6s1.86-3.82,2.72-5.76a6.69,6.69,0,0,0-.06-6.45A9.39,9.39,0,0,0,17.41,13.76Z"/><path class="cls-1" d="M1.07,66.71c1.38-1.48,2.7-3,4.18-4.46C7,60.55,9,59,10.82,57.31a15.53,15.53,0,0,0,1.73-2.2L17.11,49c1.42-1.94,2.82-3.89,4.26-5.82s2.81-3.58,4.12-5.43c1-1.4,2.23-2.72,2.53-4.48a6.76,6.76,0,0,0-1.08-5.33c-.23-.33-.47-.64-.59-.8-1,1.17-2.11,2.32-3.09,3.54-1.41,1.73-2.75,3.5-4.11,5.26-1,1.25-1.89,2.51-2.84,3.75-2.36,3.1-4.74,6.19-7.11,9.29-1.64,2.14-3.41,4.22-4.89,6.47A16.28,16.28,0,0,0,2.25,60a54.45,54.45,0,0,0-1,6C1.18,66.29,1.11,66.55,1.07,66.71Z"/><polygon class="cls-1" points="47.49 0 52.75 9.61 62.36 14.87 52.75 20.12 47.49 29.73 42.24 20.12 32.63 14.87 42.24 9.61 47.49 0"/></g></g></svg>