<svg xmlns="http://www.w3.org/2000/svg" viewBox="0 0 136.54 174.25"><defs><style>.cls-1{fill:#bf613f;}.cls-2{fill:none;stroke:#bf613f;stroke-miterlimit:10;stroke-width:2px;}</style></defs><g id="Layer_2" data-name="Layer 2"><g id="Camada_1" data-name="Camada 1"><path class="cls-1" d="M87.1,70.65c1.06,1,2.08,2,3.09,3.07,1.73,1.75,3.44,3.53,5.17,5.29q3.75,3.83,7.51,7.63c2.17,2.2,4.37,4.37,6.51,6.6,1.44,1.51,2.88,3,4.15,4.66a15.62,15.62,0,0,1,2.62,5.69,16.65,16.65,0,0,1,.46,6.62,12.06,12.06,0,0,1-.25,2.28c-.53,1.5-1.21,3-1.89,4.4-.51,1.09-1.11,2.14-1.69,3.2-1.28,2.39-2.56,4.79-3.87,7.17-1.14,2.08-2.3,4.16-3.46,6.23-1.31,2.32-2.65,4.62-4,6.95-.93,1.67-1.79,3.37-2.72,5.05-1,1.89-2.12,3.76-3.18,5.65s-2.17,3.85-3.23,5.79c-.61,1.1-1.17,2.23-1.76,3.35-.46.86-.92,1.72-1.42,2.57a.93.93,0,0,1-1.32.41c-1.77-.78-3.62-1.42-5.33-2.3a19,19,0,0,1-5.5-4.55A20.49,20.49,0,0,1,73,148.85a16.49,16.49,0,0,1-.65-3.89c-.09-1.48.13-3,.08-4.45A13,13,0,0,1,73.52,135,54.17,54.17,0,0,1,76.15,130a22.84,22.84,0,0,1,1.42-2.32,47.61,47.61,0,0,1,6.12-7.28c1.32-1.25,2.59-2.54,4-3.74s3-2.41,4.48-3.64a13.71,13.71,0,0,0,3.45-3.76c.87-1.58,1.76-3.15,2.62-4.74a2.43,2.43,0,0,0,.25-.79c.36-2.36.72-4.73,1-7.11a5.93,5.93,0,0,0-.15-1.44l.18-.09c.22.2.45.4.66.62,1,1.09,2.1,2.15,3,3.3a3.42,3.42,0,0,1,.69,2.69,14.7,14.7,0,0,1-2.13,5.66c-1.17,1.93-2.46,3.8-3.76,5.66-1,1.47-2.14,2.89-3.27,4.29s-2.1,2.48-3.17,3.7c-.64.72-1.38,1.38-1.94,2.15a1.14,1.14,0,0,0,.12,1.12,1,1,0,0,0,1.41.08c1-1,1.89-2,2.79-3,1.38-1.59,2.76-3.19,4.09-4.82a33.4,33.4,0,0,0,2.25-3.06q2.11-3.27,4.12-6.6a10.38,10.38,0,0,0,.8-2,8.94,8.94,0,0,0,.79-3.38,6.23,6.23,0,0,0-1.54-4.18c-2.63-2.83-5.31-5.62-8-8.41-2-2-4-4-6-6.08a33.49,33.49,0,0,1-3.87-4.41,6.13,6.13,0,0,1,.18-7.24,2,2,0,0,0,.12-.19Z"/><path class="cls-1" d="M74.83,127.68l8.85-40.61a8.41,8.41,0,0,1,4.72,3.34,8,8,0,0,1,1.27,6.88c-1.26,5.63-2.42,11.27-3.52,16.93a5.08,5.08,0,0,1-1.68,2.68c-1.3,1.3-2.66,2.54-3.91,3.87s-2.29,2.54-3.35,3.86c-.66.81-1.18,1.71-1.76,2.57-.14.2-.29.39-.44.58Z"/><path class="cls-1" d="M103.53,44.37c.5,1.19,1,2.31,1.43,3.43.81,2,1.59,3.93,2.4,5.88.91,2.2,1.83,4.38,2.75,6.57S112,64.84,113,67.14c.77,1.88,1.55,3.75,2.3,5.63.66,1.67,1.37,3.32,1.92,5a21.13,21.13,0,0,1,.72,3.64c.16,1.22.21,2.46.26,3.7a13.46,13.46,0,0,1-.14,1.41,31.37,31.37,0,0,1-.4,4c-.19-.56-.42-1.12-.58-1.69a20.78,20.78,0,0,0-3.27-6.07C112.5,80.9,111.12,79,110,77a39.51,39.51,0,0,1-1.94-4.87c-.89-2.3-1.79-4.59-2.68-6.89-.79-2-1.56-4.09-2.36-6.13s-1.62-3.92-2.34-5.9a6.7,6.7,0,0,1,.49-6.44A9.4,9.4,0,0,1,103.53,44.37Z"/><path class="cls-1" d="M116.37,98.17c-1.28-1.57-2.49-3.2-3.88-4.7-1.67-1.8-3.53-3.46-5.23-5.25a15.85,15.85,0,0,1-1.59-2.29q-2.08-3.2-4.14-6.41c-1.3-2-2.56-4-3.87-6s-2.57-3.74-3.77-5.66c-.91-1.46-2-2.85-2.23-4.63a6.82,6.82,0,0,1,1.43-5.25l.64-.77c1,1.23,2,2.45,2.86,3.72,1.29,1.8,2.51,3.65,3.75,5.49.88,1.29,1.72,2.6,2.59,3.9L109.42,80c1.5,2.23,3.13,4.41,4.45,6.74a16.29,16.29,0,0,1,1.76,4.73,58.22,58.22,0,0,1,.63,6A6.71,6.71,0,0,0,116.37,98.17Z"/><path class="cls-1" d="M54.54,70.34c-1.13,1-2.22,1.92-3.28,2.88-1.85,1.65-3.68,3.33-5.52,5l-8,7.18c-2.31,2.07-4.65,4.11-6.93,6.21C29.28,93,27.75,94.46,26.37,96a15.66,15.66,0,0,0-3,5.53,16.76,16.76,0,0,0-.89,6.58,11.58,11.58,0,0,0,.1,2.29c.43,1.52,1,3,1.59,4.49.44,1.12,1,2.2,1.48,3.3,1.13,2.46,2.25,4.92,3.39,7.37q1.51,3.23,3.05,6.42c1.16,2.39,2.35,4.77,3.49,7.16.82,1.73,1.57,3.48,2.38,5.2.92,1.95,1.87,3.88,2.81,5.82s1.91,4,2.84,6c.54,1.14,1,2.3,1.54,3.44.4.89.81,1.78,1.24,2.65a.93.93,0,0,0,1.3.49c1.82-.68,3.7-1.21,5.47-2A19.06,19.06,0,0,0,59,156.51a20.77,20.77,0,0,0,4.56-7.31,16.4,16.4,0,0,0,.91-3.84c.18-1.47.06-3,.21-4.45a12.82,12.82,0,0,0-.77-5.53,53.16,53.16,0,0,0-2.29-5.21,22,22,0,0,0-1.27-2.4,47.74,47.74,0,0,0-5.63-7.62c-1.24-1.32-2.42-2.68-3.71-4s-2.84-2.59-4.23-3.9a13.44,13.44,0,0,1-3.2-3.94c-.76-1.63-1.54-3.25-2.3-4.88a2.48,2.48,0,0,1-.2-.8c-.2-2.39-.41-4.77-.56-7.16a6.67,6.67,0,0,1,.24-1.44l-.17-.1c-.23.2-.48.38-.7.59-1.09,1-2.24,2-3.25,3.12a3.43,3.43,0,0,0-.87,2.64,14.56,14.56,0,0,0,1.76,5.78c1,2,2.2,3.93,3.38,5.86.94,1.52,2,3,3,4.47s1.93,2.59,2.92,3.87c.59.76,1.28,1.46,1.79,2.26a1.11,1.11,0,0,1-.19,1.11,1,1,0,0,1-1.42,0c-.89-1-1.75-2.11-2.58-3.2-1.28-1.66-2.55-3.33-3.77-5a32.35,32.35,0,0,1-2-3.18c-1.27-2.26-2.49-4.53-3.68-6.82a10,10,0,0,1-.67-2,9,9,0,0,1-.57-3.42,6.33,6.33,0,0,1,1.81-4.08C38.27,93.26,41.13,90.63,44,88c2.11-1.93,4.31-3.79,6.41-5.73a32.77,32.77,0,0,0,4.16-4.17,6.14,6.14,0,0,0,.29-7.24l-.1-.2C54.72,70.6,54.67,70.54,54.54,70.34Z"/><path class="cls-1" d="M64.06,135.17c-2.06-13.66-5.13-34.54-7.19-48.25A8.55,8.55,0,0,0,51.94,90a8.07,8.07,0,0,0-1.72,6.8q1.34,8.53,2.4,17.1a5.06,5.06,0,0,0,1.51,2.77c1.21,1.37,2.49,2.69,3.65,4.09s2.11,2.66,3.09,4c.6.85,1.06,1.78,1.59,2.67.12.21.26.4.39.6C62.92,128,64,135.2,64.06,135.17Z"/><path class="cls-1" d="M39.86,43.17c-.58,1.15-1.12,2.24-1.66,3.33-.93,1.91-1.84,3.83-2.77,5.74-1,2.13-2.12,4.26-3.18,6.4S30,63.11,28.92,65.35q-1.35,2.73-2.67,5.48c-.77,1.63-1.59,3.23-2.24,4.9a21.12,21.12,0,0,0-1,3.59c-.24,1.21-.37,2.45-.5,3.68a11.23,11.23,0,0,0,.05,1.42,32.62,32.62,0,0,0,.12,4.06c.24-.55.5-1.09.69-1.65A20.82,20.82,0,0,1,27.08,81c1.43-1.85,2.93-3.68,4.18-5.64a39.85,39.85,0,0,0,2.25-4.76q1.58-3.34,3.13-6.71c.92-2,1.83-4,2.76-6S41.27,54,42.12,52.1a6.69,6.69,0,0,0-.06-6.45A9.51,9.51,0,0,0,39.86,43.17Z"/><path class="cls-1" d="M23.52,96.12c1.38-1.49,2.7-3.05,4.18-4.46,1.79-1.71,3.75-3.26,5.57-4.94A16.75,16.75,0,0,0,35,84.52l4.56-6.16c1.42-1.93,2.82-3.88,4.26-5.81s2.81-3.58,4.12-5.43c1-1.41,2.23-2.73,2.53-4.49a6.73,6.73,0,0,0-1.08-5.32c-.23-.33-.47-.65-.59-.81-1,1.18-2.11,2.33-3.09,3.54C44.3,61.77,43,63.55,41.6,65.31c-1,1.24-1.89,2.5-2.84,3.75l-7.11,9.28c-1.64,2.15-3.41,4.23-4.89,6.48a16.22,16.22,0,0,0-2.06,4.62,55.26,55.26,0,0,0-1,6C23.63,95.7,23.56,96,23.52,96.12Z"/><path class="cls-2" d="M68.92,1h0a66.62,66.62,0,0,1,66.62,66.62V173.25a0,0,0,0,1,0,0H1a0,0,0,0,1,0,0V68.92A67.92,67.92,0,0,1,68.92,1Z"/><polygon class="cls-1" points="69.94 29.41 75.2 39.02 84.81 44.27 75.2 49.52 69.94 59.13 64.69 49.52 55.08 44.27 64.69 39.02 69.94 29.41"/></g></g></svg>