<svg width="64" height="64" viewBox="0 0 64 64" fill="none" xmlns="http://www.w3.org/2000/svg">
<rect width="64" height="64" rx="4" fill="white"/>
<path d="M37.992 26.7053C38.3326 27.0267 38.6604 27.3481 38.985 27.6919C39.541 28.2543 40.0906 28.8264 40.6465 29.392C41.45 30.2126 42.2545 31.03 43.0601 31.8441C43.7575 32.5512 44.4645 33.2486 45.1522 33.9652C45.615 34.4505 46.0778 34.9294 46.486 35.4628C46.8872 36.0093 47.1737 36.6313 47.328 37.2915C47.5195 37.9835 47.5698 38.7071 47.4758 39.419C47.4724 39.6652 47.4455 39.9106 47.3955 40.1517C47.2251 40.6338 47.0066 41.1159 46.7881 41.5658C46.6242 41.9161 46.4313 42.2535 46.2449 42.5942C45.8336 43.3623 45.4222 44.1336 45.0012 44.8985C44.6348 45.5669 44.262 46.2354 43.8892 46.9007C43.4682 47.6463 43.0376 48.3854 42.6037 49.1342C42.3048 49.6709 42.0285 50.2173 41.7296 50.7572C41.4082 51.3646 41.0483 51.9656 40.7076 52.573C40.3669 53.1804 40.0102 53.8103 39.6696 54.4337C39.4735 54.7873 39.2935 55.1504 39.1039 55.5104C38.9561 55.7867 38.8083 56.0631 38.6476 56.3363C38.63 56.3743 38.6047 56.4083 38.5732 56.4359C38.5417 56.4635 38.5048 56.4842 38.4648 56.4966C38.4248 56.509 38.3826 56.5129 38.341 56.508C38.2995 56.5031 38.2594 56.4895 38.2234 56.4681C37.6545 56.2174 37.06 56.0117 36.5104 55.7289C35.8341 55.3575 35.2344 54.8613 34.7428 54.2666C34.1493 53.5559 33.7124 52.728 33.4605 51.837C33.3412 51.4302 33.271 51.0104 33.2516 50.5869C33.2227 50.1112 33.2934 49.6227 33.2774 49.1567C33.2637 48.548 33.3833 47.9436 33.6277 47.3859C33.8813 46.836 34.1634 46.2996 34.4729 45.7791C34.6101 45.5217 34.7624 45.2727 34.9292 45.0335C35.5051 44.1899 36.164 43.4061 36.8961 42.6938C37.3203 42.2921 37.7284 41.8775 38.1816 41.4919C38.6347 41.1062 39.1457 40.7174 39.6213 40.3221C40.0633 39.9922 40.4394 39.5823 40.7301 39.1137C41.0097 38.6059 41.2957 38.1013 41.5721 37.5904C41.6132 37.511 41.6404 37.4251 41.6525 37.3365C41.7681 36.578 41.8838 35.8164 41.9738 35.0515C41.9767 34.8958 41.9605 34.7404 41.9256 34.5887L41.9835 34.5598C42.0542 34.624 42.1281 34.6883 42.1956 34.759C42.517 35.1093 42.8705 35.45 43.1597 35.8196C43.2551 35.9401 43.3241 36.0794 43.3623 36.2283C43.4005 36.3772 43.407 36.5325 43.3815 36.6841C43.2818 37.3313 43.0487 37.9507 42.6969 38.5031C42.3209 39.1233 41.9063 39.7243 41.4886 40.3221C41.1672 40.7945 40.8008 41.2508 40.4376 41.7008C40.0745 42.1507 39.7628 42.4978 39.4189 42.8899C39.2132 43.1213 38.9754 43.3334 38.7954 43.5808C38.7701 43.639 38.7604 43.7028 38.7671 43.7659C38.7739 43.829 38.7969 43.8893 38.834 43.9408C38.8907 44.0042 38.9703 44.0425 39.0552 44.0473C39.1402 44.0521 39.2236 44.0231 39.2871 43.9665C39.6085 43.6451 39.8945 43.3237 40.1838 43.0024C40.6273 42.4914 41.0708 41.9772 41.4982 41.4533C41.7577 41.1395 41.9991 40.8112 42.2213 40.4699C42.6734 39.7693 43.1147 39.0623 43.5454 38.3488C43.6531 38.1441 43.7393 37.9286 43.8025 37.7061C43.9573 37.364 44.0435 36.995 44.0564 36.6198C44.0626 36.1263 43.8863 35.6479 43.5614 35.2764C42.7162 34.3669 41.8549 33.4703 40.9904 32.5737C40.3477 31.9309 39.7049 31.2882 39.0622 30.6197C38.6069 30.1846 38.1907 29.7103 37.8184 29.2024C37.5797 28.8587 37.4566 28.4479 37.467 28.0296C37.4774 27.6112 37.6207 27.2071 37.8763 26.8756C37.8903 26.856 37.9031 26.8356 37.9148 26.8146L37.992 26.7053Z" fill="#BF613F"/>
<path d="M34.0487 45.0335L36.8929 31.9823C37.5095 32.1496 38.0469 32.5299 38.4098 33.0557C38.6408 33.3693 38.7976 33.7312 38.8683 34.1143C38.9391 34.4973 38.9218 34.8914 38.8179 35.2668C38.413 37.0762 38.0402 38.8887 37.6867 40.7077C37.6029 41.045 37.4138 41.3467 37.1467 41.569C36.729 41.9868 36.2919 42.3853 35.8902 42.8127C35.4884 43.2402 35.1542 43.629 34.8135 44.0533C34.6014 44.3136 34.4343 44.6028 34.2479 44.8792C34.2029 44.9435 34.1547 45.0045 34.1065 45.0656L34.0487 45.0335Z" fill="#BF613F"/>
<path d="M43.2722 18.2595C43.4329 18.642 43.5936 19.0019 43.7318 19.3618C43.9921 20.0046 44.2428 20.6248 44.5031 21.2515C44.7955 21.9586 45.0912 22.6592 45.3869 23.363C45.6825 24.0668 45.9943 24.8381 46.3156 25.5773C46.5631 26.1815 46.8138 26.7824 47.0548 27.3866C47.2669 27.9233 47.4951 28.4536 47.6719 28.9935C47.7831 29.3759 47.8606 29.7674 47.9032 30.1633C47.9547 30.5554 47.9707 30.9539 47.9868 31.3524C47.9798 31.5042 47.9648 31.6554 47.9418 31.8056C47.9265 32.2364 47.8835 32.6658 47.8133 33.0911C47.7522 32.9111 47.6783 32.7311 47.6269 32.5479C47.3876 31.8437 47.0324 31.1844 46.576 30.5972C46.1549 29.9994 45.7114 29.3888 45.3515 28.7461C45.1093 28.2387 44.901 27.7159 44.728 27.1809C44.442 26.4418 44.1528 25.7058 43.8667 24.9667C43.6129 24.3239 43.3654 23.6522 43.1083 22.9966C42.8512 22.341 42.5877 21.7368 42.3563 21.1005C42.206 20.7702 42.1416 20.4073 42.1692 20.0454C42.1967 19.6836 42.3152 19.3346 42.5137 19.0308C42.7181 18.7302 42.975 18.4689 43.2722 18.2595Z" fill="#BF613F"/>
<path d="M47.3987 35.5496C46.9873 35.0451 46.5985 34.5212 46.1517 34.0391C45.615 33.4607 45.0173 32.9272 44.4709 32.3519C44.2793 32.1221 44.1083 31.8758 43.9599 31.616C43.5143 30.9303 43.0708 30.2437 42.6294 29.5559C42.2117 28.9132 41.8067 28.2704 41.3857 27.6277C40.9647 26.9849 40.5598 26.4257 40.1741 25.8087C39.8817 25.3395 39.5314 24.8927 39.4574 24.3207C39.4142 24.023 39.4326 23.7195 39.5117 23.4293C39.5907 23.139 39.7287 22.8681 39.917 22.6335L40.1227 22.386C40.4441 22.7813 40.7655 23.1734 41.0418 23.5815C41.4564 24.16 41.8485 24.7545 42.247 25.3459C42.5298 25.7605 42.7998 26.1815 43.0794 26.5993L45.1651 29.7102C45.6472 30.4269 46.171 31.1275 46.5952 31.8763C46.8616 32.3505 47.0524 32.8634 47.1609 33.3964C47.2616 34.0352 47.3292 34.6788 47.3633 35.3246C47.3711 35.4002 47.3829 35.4753 47.3987 35.5496Z" fill="#BF613F"/>
<path d="M27.5279 26.6057C27.1648 26.9271 26.8145 27.2227 26.4738 27.5312C25.8793 28.0615 25.2911 28.6014 24.6998 29.1381L22.1288 31.4456C21.3864 32.1109 20.6344 32.7665 19.9016 33.4414C19.4099 33.8881 18.9182 34.3573 18.4747 34.8522C18.0364 35.3733 17.7084 35.9779 17.5106 36.6294C17.2752 37.3082 17.1779 38.0272 17.2246 38.7441C17.2109 38.9899 17.2217 39.2364 17.2567 39.4801C17.3949 39.9686 17.5781 40.4442 17.7677 40.923C17.9091 41.283 18.0891 41.6301 18.2433 41.9836C18.6065 42.7742 18.9664 43.5648 19.3328 44.3521C19.6563 45.0442 19.9831 45.7319 20.313 46.4154C20.6858 47.1835 21.0682 47.9484 21.4346 48.7164C21.6981 49.2724 21.9392 49.8348 22.1995 50.3876C22.4952 51.0143 22.8005 51.6346 23.1026 52.258C23.4046 52.8815 23.7164 53.5435 24.0153 54.1863C24.1888 54.5527 24.3366 54.9255 24.5102 55.2918C24.6387 55.5779 24.7705 55.8639 24.9087 56.1435C24.9238 56.1828 24.9471 56.2186 24.977 56.2483C25.0069 56.278 25.0428 56.3011 25.0823 56.3159C25.1217 56.3308 25.1639 56.3372 25.206 56.3346C25.2481 56.332 25.2891 56.3205 25.3265 56.3009C25.9114 56.0824 26.5156 55.9121 27.0844 55.6582C27.7908 55.3286 28.4278 54.8672 28.9613 54.2988C29.6086 53.6267 30.1078 52.8264 30.4267 51.9495C30.5735 51.5514 30.6717 51.137 30.7192 50.7154C30.777 50.243 30.7385 49.7513 30.7867 49.2853C30.8358 48.6819 30.7513 48.0751 30.5392 47.5081C30.324 46.9372 30.0783 46.3783 29.8033 45.8337C29.6832 45.5684 29.5469 45.3108 29.3951 45.0624C28.8747 44.1881 28.2686 43.3678 27.5858 42.6135C27.1873 42.1893 26.808 41.7522 26.3935 41.328C25.9789 40.9038 25.4807 40.4956 25.034 40.0746C24.6139 39.7217 24.2649 39.2919 24.0056 38.8084C23.7614 38.2845 23.5107 37.7639 23.2665 37.2401C23.2308 37.1585 23.2091 37.0716 23.2022 36.983C23.1379 36.2149 23.0704 35.45 23.0222 34.6819C23.0309 34.5253 23.0568 34.3701 23.0993 34.2191L23.0447 34.187C22.9708 34.2512 22.8904 34.3091 22.8197 34.3766C22.4694 34.698 22.0999 35.0193 21.7753 35.3793C21.672 35.4934 21.5938 35.6278 21.5457 35.7739C21.4975 35.92 21.4805 36.0746 21.4957 36.2277C21.5522 36.8796 21.7449 37.5125 22.0613 38.0853C22.3827 38.728 22.7683 39.3483 23.1475 39.9686C23.4496 40.457 23.7903 40.9327 24.1117 41.4051C24.4331 41.8775 24.7319 42.2375 25.0501 42.6488C25.2397 42.8931 25.4615 43.118 25.6254 43.3752C25.6479 43.4347 25.6542 43.4991 25.6434 43.5618C25.6327 43.6246 25.6054 43.6833 25.5643 43.7319C25.5344 43.762 25.4989 43.7859 25.4597 43.8022C25.4206 43.8185 25.3786 43.8269 25.3361 43.8269C25.2937 43.8269 25.2517 43.8185 25.2125 43.8022C25.1734 43.7859 25.1378 43.762 25.1079 43.7319C24.8219 43.4105 24.5455 43.0538 24.2788 42.7035C23.8674 42.17 23.4593 41.6333 23.0672 41.0966C22.8333 40.7687 22.6187 40.4274 22.4244 40.0746C22.0163 39.3483 21.6242 38.6188 21.2418 37.8828C21.1475 37.6768 21.0754 37.4613 21.0265 37.2401C20.8947 36.889 20.8325 36.5157 20.8433 36.1409C20.8715 35.6477 21.0783 35.1817 21.425 34.8297C22.2991 33.9717 23.2182 33.1264 24.1406 32.2812C24.8187 31.6609 25.5257 31.0632 26.2006 30.4397C26.6856 30.034 27.133 29.5855 27.5376 29.0996C27.7979 28.7718 27.9472 28.3697 27.964 27.9514C27.9807 27.5331 27.864 27.1204 27.6308 26.7728L27.5986 26.7085C27.5858 26.6892 27.5697 26.67 27.5279 26.6057Z" fill="#BF613F"/>
<path d="M30.5874 47.4406C29.9254 43.0506 28.9388 36.3402 28.2767 31.9341C27.6492 32.0689 27.0887 32.4191 26.6923 32.924C26.4417 33.2232 26.2618 33.5751 26.1661 33.9534C26.0704 34.3318 26.0613 34.7269 26.1396 35.1093C26.4267 36.9369 26.6838 38.7687 26.9109 40.6049C26.9736 40.9458 27.1437 41.2577 27.3962 41.4951C27.785 41.9354 28.1964 42.3596 28.5692 42.8095C28.942 43.2595 29.2473 43.6644 29.5622 44.095C29.7551 44.3682 29.9029 44.6671 30.0732 44.9531C30.1118 45.0206 30.1568 45.0817 30.1986 45.1459C30.2211 45.1363 30.5681 47.4502 30.5874 47.4406Z" fill="#BF613F"/>
<path d="M22.8101 17.8739C22.6237 18.2434 22.4502 18.5937 22.2766 18.944C21.9777 19.5579 21.6853 20.1749 21.3864 20.7888C21.065 21.4733 20.7051 22.1578 20.3644 22.8456C20.0238 23.5333 19.6413 24.2821 19.2942 25.002C19.005 25.5869 18.719 26.174 18.4362 26.7632C18.1887 27.287 17.9252 27.8012 17.7163 28.3379C17.5754 28.7123 17.4678 29.0984 17.3949 29.4917C17.3178 29.8805 17.276 30.279 17.2342 30.6743C17.2299 30.8266 17.2353 30.979 17.2503 31.1307C17.236 31.566 17.2489 32.0018 17.2888 32.4355C17.366 32.2587 17.4495 32.0852 17.5106 31.9052C17.8009 31.2186 18.2039 30.5853 18.7029 30.0316C19.1625 29.437 19.6445 28.8489 20.0463 28.219C20.3207 27.7256 20.5623 27.2145 20.7694 26.6892C21.1079 25.9736 21.4432 25.2548 21.7753 24.5328C22.0709 23.89 22.3634 23.2473 22.6623 22.6045C22.9611 21.9618 23.2632 21.3544 23.5364 20.7438C23.7082 20.4246 23.7965 20.0672 23.7931 19.7048C23.7897 19.3424 23.6948 18.9868 23.5171 18.6709C23.3299 18.3659 23.0906 18.0961 22.8101 17.8739Z" fill="#BF613F"/>
<path d="M17.5588 34.8908C18.0023 34.4119 18.4265 33.9106 18.9022 33.4574C19.4774 32.9079 20.1073 32.4098 20.6922 31.8698C20.897 31.6501 21.0829 31.4136 21.2482 31.1628L22.7137 29.1831C23.17 28.5629 23.62 27.9362 24.0828 27.3159C24.5455 26.6957 24.9858 26.1654 25.4068 25.5708C25.7282 25.1177 26.1235 24.6935 26.2199 24.1279C26.284 23.8344 26.2862 23.5308 26.2264 23.2365C26.1666 22.9421 26.0462 22.6634 25.8728 22.4181C25.7989 22.3121 25.7218 22.2092 25.6832 22.1578C25.3618 22.537 25.0051 22.9066 24.6902 23.2955C24.237 23.8515 23.8192 24.4235 23.3693 24.9892C23.0479 25.3877 22.7619 25.7926 22.4566 26.1943L20.1716 29.1767C19.6445 29.8677 19.0757 30.5361 18.6001 31.2592C18.3031 31.7165 18.0797 32.2175 17.938 32.744C17.7956 33.3804 17.6883 34.0241 17.6166 34.6723C17.5941 34.7558 17.5717 34.8522 17.5588 34.8908Z" fill="#BF613F"/>
<path fill-rule="evenodd" clip-rule="evenodd" d="M32.1493 4.64275C26.4454 4.64275 20.9751 6.90862 16.9419 10.9419C12.9086 14.9751 10.6428 20.4454 10.6428 26.1493V59.3572H53.2381V25.7315C53.2381 22.9621 52.6926 20.2198 51.6328 17.6612C50.573 15.1026 49.0196 12.7778 47.0613 10.8195C45.1031 8.86124 42.7783 7.30785 40.2197 6.24804C37.661 5.18823 34.9187 4.64275 32.1493 4.64275ZM16.4874 10.4874C20.6412 6.33358 26.275 4 32.1493 4C35.0032 4 37.829 4.5621 40.4656 5.65421C43.1022 6.74633 45.4979 8.34706 47.5158 10.365C49.5338 12.383 51.1345 14.7786 52.2266 17.4152C53.3188 20.0518 53.8809 22.8777 53.8809 25.7315V60H10V26.1493C10 20.275 12.3336 14.6412 16.4874 10.4874Z" fill="#BF613F"/>
<path d="M32.4771 13.4517L34.1676 16.5401L37.256 18.2274L34.1676 19.9146L32.4771 23.003L30.7899 19.9146L27.7015 18.2274L30.7899 16.5401L32.4771 13.4517Z" fill="#BF613F"/>
</svg>
