<svg width="324" height="109" viewBox="0 0 324 109" fill="none" xmlns="http://www.w3.org/2000/svg">
<path d="M24.912 19.304V25.88H11.184V32.984H21.456V39.368H11.184L11.184 53H2.976L2.976 19.304H24.912ZM46.41 53L39.402 40.28H37.434V53H29.226L29.226 19.304L43.002 19.304C45.658 19.304 47.914 19.768 49.77 20.696C51.658 21.624 53.066 22.904 53.994 24.536C54.922 26.136 55.386 27.928 55.386 29.912C55.386 32.152 54.746 34.152 53.466 35.912C52.218 37.672 50.362 38.92 47.898 39.656L55.674 53H46.41ZM37.434 34.472H42.522C44.026 34.472 45.146 34.104 45.882 33.368C46.65 32.632 47.034 31.592 47.034 30.248C47.034 28.968 46.65 27.96 45.882 27.224C45.146 26.488 44.026 26.12 42.522 26.12H37.434V34.472ZM68.7465 25.88V32.696H79.7385V39.032H68.7465V46.424H81.1785V53L60.5385 53V19.304H81.1785V25.88H68.7465ZM110.747 19.304V25.88H101.819V53H93.6113V25.88H84.6833V19.304L110.747 19.304ZM123.075 25.88V32.696H134.067V39.032H123.075V46.424H135.507V53H114.867V19.304H135.507V25.88H123.075ZM173.375 29.96C172.767 28.84 171.887 27.992 170.735 27.416C169.615 26.808 168.287 26.504 166.751 26.504C164.095 26.504 161.967 27.384 160.367 29.144C158.767 30.872 157.967 33.192 157.967 36.104C157.967 39.208 158.799 41.64 160.463 43.4C162.159 45.128 164.479 45.992 167.423 45.992C169.439 45.992 171.135 45.48 172.511 44.456C173.919 43.432 174.943 41.96 175.583 40.04H165.167V33.992H183.023V41.624C182.415 43.672 181.375 45.576 179.903 47.336C178.463 49.096 176.623 50.52 174.383 51.608C172.143 52.696 169.615 53.24 166.799 53.24C163.471 53.24 160.495 52.52 157.871 51.08C155.279 49.608 153.247 47.576 151.775 44.984C150.335 42.392 149.615 39.432 149.615 36.104C149.615 32.776 150.335 29.816 151.775 27.224C153.247 24.6 155.279 22.568 157.871 21.128C160.463 19.656 163.423 18.92 166.751 18.92C170.783 18.92 174.175 19.896 176.927 21.848C179.711 23.8 181.551 26.504 182.447 29.96H173.375ZM204.754 53L197.746 40.28H195.778V53L187.57 53V19.304H201.346C204.002 19.304 206.258 19.768 208.114 20.696C210.002 21.624 211.41 22.904 212.338 24.536C213.266 26.136 213.73 27.928 213.73 29.912C213.73 32.152 213.09 34.152 211.81 35.912C210.562 37.672 208.706 38.92 206.242 39.656L214.018 53H204.754ZM195.778 34.472H200.866C202.37 34.472 203.49 34.104 204.226 33.368C204.994 32.632 205.378 31.592 205.378 30.248C205.378 28.968 204.994 27.96 204.226 27.224C203.49 26.488 202.37 26.12 200.866 26.12H195.778V34.472ZM239.858 47.048H227.282L225.266 53H216.674L228.866 19.304H238.37L250.562 53H241.874L239.858 47.048ZM237.746 40.712L233.57 28.376L229.442 40.712H237.746ZM239.186 12.536L227.618 17.384V11.72L239.186 6.152V12.536ZM278.513 19.304V25.88H269.585V53H261.377V25.88H252.449V19.304H278.513ZM290.84 19.304V53H282.632V19.304L290.84 19.304ZM308.981 53.336C306.517 53.336 304.309 52.936 302.357 52.136C300.405 51.336 298.837 50.152 297.653 48.584C296.501 47.016 295.893 45.128 295.829 42.92H304.565C304.693 44.168 305.125 45.128 305.861 45.8C306.597 46.44 307.557 46.76 308.741 46.76C309.957 46.76 310.917 46.488 311.621 45.944C312.325 45.368 312.677 44.584 312.677 43.592C312.677 42.76 312.389 42.072 311.813 41.528C311.269 40.984 310.581 40.536 309.749 40.184C308.949 39.832 307.797 39.432 306.293 38.984C304.117 38.312 302.341 37.64 300.965 36.968C299.589 36.296 298.405 35.304 297.413 33.992C296.421 32.68 295.925 30.968 295.925 28.856C295.925 25.72 297.061 23.272 299.333 21.512C301.605 19.72 304.565 18.824 308.213 18.824C311.925 18.824 314.917 19.72 317.189 21.512C319.461 23.272 320.677 25.736 320.837 28.904H311.957C311.893 27.816 311.493 26.968 310.757 26.36C310.021 25.72 309.077 25.4 307.924 25.4C306.933 25.4 306.133 25.672 305.525 26.216C304.917 26.728 304.613 27.48 304.613 28.472C304.613 29.56 305.125 30.408 306.148 31.016C307.173 31.624 308.773 32.28 310.949 32.984C313.125 33.72 314.885 34.424 316.229 35.096C317.605 35.768 318.789 36.744 319.781 38.024C320.773 39.304 321.269 40.952 321.269 42.968C321.269 44.888 320.773 46.632 319.781 48.2C318.821 49.768 317.413 51.016 315.557 51.944C313.701 52.872 311.509 53.336 308.981 53.336Z" fill="white"/>
<rect y="72" width="221" height="37" rx="4" fill="#FFEC3D"/>
<path d="M35.746 88.432C35.746 89.164 35.578 89.836 35.242 90.448C34.906 91.048 34.39 91.534 33.694 91.906C32.998 92.278 32.134 92.464 31.102 92.464H29.194V97H26.116V84.364H31.102C32.11 84.364 32.962 84.538 33.658 84.886C34.354 85.234 34.876 85.714 35.224 86.326C35.572 86.938 35.746 87.64 35.746 88.432ZM30.868 90.016C31.456 90.016 31.894 89.878 32.182 89.602C32.47 89.326 32.614 88.936 32.614 88.432C32.614 87.928 32.47 87.538 32.182 87.262C31.894 86.986 31.456 86.848 30.868 86.848H29.194V90.016H30.868ZM45.2144 94.768H40.4984L39.7424 97H36.5204L41.0924 84.364H44.6564L49.2284 97H45.9704L45.2144 94.768ZM44.4224 92.392L42.8564 87.766L41.3084 92.392H44.4224ZM57.0639 97L54.4359 92.23H53.6979V97H50.6199V84.364H55.7859C56.7819 84.364 57.6279 84.538 58.3239 84.886C59.0319 85.234 59.5599 85.714 59.9079 86.326C60.2559 86.926 60.4299 87.598 60.4299 88.342C60.4299 89.182 60.1899 89.932 59.7099 90.592C59.2419 91.252 58.5459 91.72 57.6219 91.996L60.5379 97H57.0639ZM53.6979 90.052H55.6059C56.1699 90.052 56.5899 89.914 56.8659 89.638C57.1539 89.362 57.2979 88.972 57.2979 88.468C57.2979 87.988 57.1539 87.61 56.8659 87.334C56.5899 87.058 56.1699 86.92 55.6059 86.92H53.6979V90.052ZM70.2281 94.768H65.5121L64.7561 97H61.5341L66.1061 84.364H69.6701L74.2421 97H70.9841L70.2281 94.768ZM69.4361 92.392L67.8701 87.766L66.3221 92.392H69.4361ZM88.538 84.364V86.83H85.19V97H82.112V86.83H78.764V84.364H88.538ZM96.0588 97.126C94.8708 97.126 93.7788 96.85 92.7828 96.298C91.7988 95.746 91.0128 94.978 90.4248 93.994C89.8488 92.998 89.5608 91.882 89.5608 90.646C89.5608 89.41 89.8488 88.3 90.4248 87.316C91.0128 86.332 91.7988 85.564 92.7828 85.012C93.7788 84.46 94.8708 84.184 96.0588 84.184C97.2468 84.184 98.3328 84.46 99.3168 85.012C100.313 85.564 101.093 86.332 101.657 87.316C102.233 88.3 102.521 89.41 102.521 90.646C102.521 91.882 102.233 92.998 101.657 93.994C101.081 94.978 100.301 95.746 99.3168 96.298C98.3328 96.85 97.2468 97.126 96.0588 97.126ZM96.0588 94.318C97.0668 94.318 97.8708 93.982 98.4708 93.31C99.0828 92.638 99.3888 91.75 99.3888 90.646C99.3888 89.53 99.0828 88.642 98.4708 87.982C97.8708 87.31 97.0668 86.974 96.0588 86.974C95.0388 86.974 94.2228 87.304 93.6108 87.964C93.0108 88.624 92.7108 89.518 92.7108 90.646C92.7108 91.762 93.0108 92.656 93.6108 93.328C94.2228 93.988 95.0388 94.318 96.0588 94.318ZM108.967 84.364C110.299 84.364 111.463 84.628 112.459 85.156C113.455 85.684 114.223 86.428 114.763 87.388C115.315 88.336 115.591 89.434 115.591 90.682C115.591 91.918 115.315 93.016 114.763 93.976C114.223 94.936 113.449 95.68 112.441 96.208C111.445 96.736 110.287 97 108.967 97H104.233V84.364H108.967ZM108.769 94.336C109.933 94.336 110.839 94.018 111.487 93.382C112.135 92.746 112.459 91.846 112.459 90.682C112.459 89.518 112.135 88.612 111.487 87.964C110.839 87.316 109.933 86.992 108.769 86.992H107.311V94.336H108.769ZM123.287 97.126C122.099 97.126 121.007 96.85 120.011 96.298C119.027 95.746 118.241 94.978 117.653 93.994C117.077 92.998 116.789 91.882 116.789 90.646C116.789 89.41 117.077 88.3 117.653 87.316C118.241 86.332 119.027 85.564 120.011 85.012C121.007 84.46 122.099 84.184 123.287 84.184C124.475 84.184 125.561 84.46 126.545 85.012C127.541 85.564 128.321 86.332 128.885 87.316C129.461 88.3 129.749 89.41 129.749 90.646C129.749 91.882 129.461 92.998 128.885 93.994C128.309 94.978 127.529 95.746 126.545 96.298C125.561 96.85 124.475 97.126 123.287 97.126ZM123.287 94.318C124.295 94.318 125.099 93.982 125.699 93.31C126.311 92.638 126.617 91.75 126.617 90.646C126.617 89.53 126.311 88.642 125.699 87.982C125.099 87.31 124.295 86.974 123.287 86.974C122.267 86.974 121.451 87.304 120.839 87.964C120.239 88.624 119.939 89.518 119.939 90.646C119.939 91.762 120.239 92.656 120.839 93.328C121.451 93.988 122.267 94.318 123.287 94.318ZM142.926 90.52C143.658 90.676 144.246 91.042 144.69 91.618C145.134 92.182 145.356 92.83 145.356 93.562C145.356 94.618 144.984 95.458 144.24 96.082C143.508 96.694 142.482 97 141.162 97H135.276V84.364H140.964C142.248 84.364 143.25 84.658 143.97 85.246C144.702 85.834 145.068 86.632 145.068 87.64C145.068 88.384 144.87 89.002 144.474 89.494C144.09 89.986 143.574 90.328 142.926 90.52ZM138.354 89.476H140.37C140.874 89.476 141.258 89.368 141.522 89.152C141.798 88.924 141.936 88.594 141.936 88.162C141.936 87.73 141.798 87.4 141.522 87.172C141.258 86.944 140.874 86.83 140.37 86.83H138.354V89.476ZM140.622 94.516C141.138 94.516 141.534 94.402 141.81 94.174C142.098 93.934 142.242 93.592 142.242 93.148C142.242 92.704 142.092 92.356 141.792 92.104C141.504 91.852 141.102 91.726 140.586 91.726H138.354V94.516H140.622ZM153.585 97L150.957 92.23H150.219V97H147.141V84.364H152.307C153.303 84.364 154.149 84.538 154.845 84.886C155.553 85.234 156.081 85.714 156.429 86.326C156.777 86.926 156.951 87.598 156.951 88.342C156.951 89.182 156.711 89.932 156.231 90.592C155.763 91.252 155.067 91.72 154.143 91.996L157.059 97H153.585ZM150.219 90.052H152.127C152.691 90.052 153.111 89.914 153.387 89.638C153.675 89.362 153.819 88.972 153.819 88.468C153.819 87.988 153.675 87.61 153.387 87.334C153.111 87.058 152.691 86.92 152.127 86.92H150.219V90.052ZM166.75 94.768H162.034L161.278 97H158.056L162.628 84.364H166.192L170.764 97H167.506L166.75 94.768ZM165.958 92.392L164.392 87.766L162.844 92.392H165.958ZM176.727 97.126C175.803 97.126 174.975 96.976 174.243 96.676C173.511 96.376 172.923 95.932 172.479 95.344C172.047 94.756 171.819 94.048 171.795 93.22H175.071C175.119 93.688 175.281 94.048 175.557 94.3C175.833 94.54 176.193 94.66 176.637 94.66C177.093 94.66 177.453 94.558 177.717 94.354C177.981 94.138 178.113 93.844 178.113 93.472C178.113 93.16 178.005 92.902 177.789 92.698C177.585 92.494 177.327 92.326 177.015 92.194C176.715 92.062 176.283 91.912 175.719 91.744C174.903 91.492 174.237 91.24 173.721 90.988C173.205 90.736 172.761 90.364 172.389 89.872C172.017 89.38 171.831 88.738 171.831 87.946C171.831 86.77 172.257 85.852 173.109 85.192C173.961 84.52 175.071 84.184 176.439 84.184C177.831 84.184 178.953 84.52 179.805 85.192C180.657 85.852 181.113 86.776 181.173 87.964H177.843C177.819 87.556 177.669 87.238 177.393 87.01C177.117 86.77 176.763 86.65 176.331 86.65C175.959 86.65 175.659 86.752 175.431 86.956C175.203 87.148 175.089 87.43 175.089 87.802C175.089 88.21 175.281 88.528 175.665 88.756C176.049 88.984 176.649 89.23 177.465 89.494C178.281 89.77 178.941 90.034 179.445 90.286C179.961 90.538 180.405 90.904 180.777 91.384C181.149 91.864 181.335 92.482 181.335 93.238C181.335 93.958 181.149 94.612 180.777 95.2C180.417 95.788 179.889 96.256 179.193 96.604C178.497 96.952 177.675 97.126 176.727 97.126ZM186.307 84.364V97H183.229V84.364H186.307ZM191.616 94.624H195.648V97H188.538V84.364H191.616V94.624Z" fill="#4CAE4F"/>
</svg>
